<svg baseProfile="tiny" xmlns="http://www.w3.org/2000/svg" width="220" height="40"><text transform="translate(-192.102 167.576)" font-family="'FranklinGothic-Book'" font-size="12">O</text><text transform="translate(-184.532 167.576)" font-family="'FranklinGothic-Book'" font-size="12">C</text><text transform="translate(-177.583 167.576)" font-family="'FranklinGothic-Book'" font-size="12">T</text><text transform="translate(-172.116 167.576)" font-family="'FranklinGothic-Book'" font-size="12">O</text><text transform="translate(-164.545 167.576)" font-family="'FranklinGothic-Book'" font-size="12">B</text><text transform="translate(-157.292 167.576)" font-family="'FranklinGothic-Book'" font-size="12">E</text><text transform="translate(-150.717 167.576)" font-family="'FranklinGothic-Book'" font-size="12">R</text><text transform="translate(-140.364 167.576)" font-family="'FranklinGothic-Book'" font-size="12">3</text><text transform="translate(-133.327 167.576)" font-family="'FranklinGothic-Book'" font-size="12">0</text><text transform="matrix(1.01 0 0 1 -126.29 164.576)" font-family="'FranklinGothic-Book'" font-size="8">t</text><text transform="matrix(1.01 0 0 1 -123.804 164.576)" font-family="'FranklinGothic-Book'" font-size="8">h</text><text transform="translate(-225.435 183.161)" font-family="'FranklinGothic-Book'" font-size="12">T</text><text transform="translate(-219.611 183.161)" font-family="'FranklinGothic-Book'" font-size="12">h</text><text transform="translate(-213.13 183.161)" font-family="'FranklinGothic-Book'" font-size="12">e</text><text transform="translate(-203.884 183.161)" font-family="'FranklinGothic-Book'" font-size="12">M</text><text transform="translate(-194.164 183.161)" font-family="'FranklinGothic-Book'" font-size="12">D</text><text transform="translate(-186.4 183.161)" font-family="'FranklinGothic-Book'" font-size="12">C</text><text transform="translate(-176.451 183.161)" font-family="'FranklinGothic-Book'" font-size="12">I</text><text transform="translate(-173.451 183.161)" font-family="'FranklinGothic-Book'" font-size="12">n</text><text transform="translate(-166.947 183.161)" font-family="'FranklinGothic-Book'" font-size="12">n</text><text transform="translate(-160.443 183.161)" font-family="'FranklinGothic-Book'" font-size="12">o</text><text transform="translate(-154.414 183.161)" font-family="'FranklinGothic-Book'" font-size="12">v</text><text transform="translate(-149.128 183.161)" font-family="'FranklinGothic-Book'" font-size="12">a</text><text transform="translate(-142.783 183.161)" font-family="'FranklinGothic-Book'" font-size="12">t</text><text transform="translate(-139.091 183.161)" font-family="'FranklinGothic-Book'" font-size="12">i</text><text transform="translate(-136.337 183.161)" font-family="'FranklinGothic-Book'" font-size="12">o</text><text transform="translate(-130.103 183.161)" font-family="'FranklinGothic-Book'" font-size="12">n</text><text transform="translate(-120.599 183.161)" font-family="'FranklinGothic-Book'" font-size="12">C</text><text transform="translate(-113.65 183.161)" font-family="'FranklinGothic-Book'" font-size="12">e</text><text transform="translate(-107.404 183.161)" font-family="'FranklinGothic-Book'" font-size="12">n</text><text transform="translate(-100.9 183.161)" font-family="'FranklinGothic-Book'" font-size="12">t</text><text transform="translate(-97.209 183.161)" font-family="'FranklinGothic-Book'" font-size="12">r</text><text transform="translate(-93.253 183.161)" font-family="'FranklinGothic-Book'" font-size="12">e</text><text transform="translate(-87.008 183.161)" font-family="'FranklinGothic-Book'" font-size="12">,</text><text transform="translate(-225.435 197.161)" font-family="'FranklinGothic-Book'" font-size="12">7</text><text transform="translate(-219.669 197.161)" font-family="'FranklinGothic-Book'" font-size="12">4</text><text transform="translate(-212.632 197.161)" font-family="'FranklinGothic-Book'" font-size="12">5</text><text transform="translate(-202.595 197.161)" font-family="'FranklinGothic-Book'" font-size="12">F</text><text transform="translate(-196.501 197.161)" font-family="'FranklinGothic-Book'" font-size="12">i</text><text transform="translate(-193.748 197.161)" font-family="'FranklinGothic-Book'" font-size="12">f</text><text transform="translate(-189.816 197.161)" font-family="'FranklinGothic-Book'" font-size="12">t</text><text transform="translate(-186.125 197.161)" font-family="'FranklinGothic-Book'" font-size="12">h</text><text transform="translate(-176.644 197.161)" font-family="'FranklinGothic-Book'" font-size="12">A</text><text transform="translate(-170.527 197.161)" font-family="'FranklinGothic-Book'" font-size="12">v</text><text transform="translate(-165.306 197.161)" font-family="'FranklinGothic-Book'" font-size="12">e</text><text transform="translate(-159.06 197.161)" font-family="'FranklinGothic-Book'" font-size="12">n</text><text transform="translate(-152.556 197.161)" font-family="'FranklinGothic-Book'" font-size="12">u</text><text transform="translate(-146.058 197.161)" font-family="'FranklinGothic-Book'" font-size="12">e</text><text transform="translate(-139.812 197.161)" font-family="'FranklinGothic-Book'" font-size="12">,</text><text transform="translate(-133.812 197.161)" font-family="'FranklinGothic-Book'" font-size="12">1</text><text transform="translate(-126.933 197.161)" font-family="'FranklinGothic-Book'" font-size="12">9</text><text transform="translate(-119.896 197.161)" font-family="'FranklinGothic-Book'" font-size="12">t</text><text transform="translate(-116.205 197.161)" font-family="'FranklinGothic-Book'" font-size="12">h</text><text transform="translate(-106.724 197.161)" font-family="'FranklinGothic-Book'" font-size="12">F</text><text transform="translate(-100.63 197.161)" font-family="'FranklinGothic-Book'" font-size="12">l</text><text transform="translate(-97.871 197.161)" font-family="'FranklinGothic-Book'" font-size="12">o</text><text transform="translate(-91.636 197.161)" font-family="'FranklinGothic-Book'" font-size="12">o</text><text transform="translate(-85.402 197.161)" font-family="'FranklinGothic-Book'" font-size="12">r</text><path d="M-218.714 109.828h-1.002v-7.119h-2.291v-.879h5.59v.879h-2.297v7.119z"/><path d="M-210.746 109.828h-.92v-3.592c0-.422-.026-.738-.079-.949s-.178-.394-.375-.548-.425-.231-.683-.231c-.473 0-.868.193-1.187.58s-.478.904-.478 1.553v3.188h-.92v-7.998h.92v3.169c.418-.836 1.016-1.254 1.793-1.254.348 0 .657.068.929.205s.479.316.624.539.243.442.296.659.079.579.079 1.087v3.592z"/><path d="M-204.998 108.064l.855.176c-.156.506-.461.924-.914 1.255-.453.331-.986.497-1.6.497-.809 0-1.463-.284-1.963-.854-.5-.569-.75-1.314-.75-2.237 0-.942.26-1.704.779-2.284s1.172-.871 1.957-.871c.773 0 1.396.268 1.866.803s.712 1.336.724 2.402h-4.301c0 .895.188 1.498.562 1.811s.771.469 1.189.469c.757-.001 1.288-.389 1.596-1.167zm-.052-1.798c-.008-.332-.062-.627-.164-.885s-.273-.478-.516-.659-.533-.272-.873-.272c-.457 0-.845.164-1.163.492s-.497.77-.536 1.324h3.252z"/><path d="M-191.855 109.828h-.973v-6.984l-2.596 6.984h-.68l-2.625-6.984v6.984h-.85v-7.998h1.483l2.416 6.397 2.359-6.397h1.464v7.998z"/><path d="M-189.857 109.828v-7.998h2.684c1.129 0 2.008.385 2.637 1.154s.943 1.711.943 2.824c0 1.129-.307 2.081-.92 2.856s-1.391 1.163-2.332 1.163h-3.012zm1.002-.849h1.623c.859 0 1.512-.297 1.957-.891s.668-1.377.668-2.35c0-.789-.212-1.498-.636-2.127s-1.087-.943-1.989-.943h-1.623v6.311z"/><path d="M-177.3 107.139l.914.205c-.438 1.766-1.426 2.648-2.965 2.648-1.012 0-1.806-.408-2.382-1.226-.576-.817-.864-1.821-.864-3.014 0-1.231.301-2.22.902-2.967s1.408-1.12 2.42-1.12c1.5 0 2.463.857 2.889 2.572l-.943.188c-.344-1.273-.994-1.91-1.951-1.91-.707 0-1.255.296-1.644.888s-.583 1.423-.583 2.493c0 .98.199 1.767.598 2.358s.926.888 1.582.888c1.019.001 1.695-.667 2.027-2.003z"/><path d="M-171.142 109.828h-1.002v-7.998h1.002v7.998z"/><path d="M-164.562 109.828h-.861v-3.803c0-.547-.119-.932-.357-1.154s-.527-.334-.867-.334c-.469 0-.862.188-1.181.562s-.478.869-.478 1.482v3.246h-.92v-5.918h.855v1.091c.48-.836 1.104-1.254 1.869-1.254.441 0 .817.114 1.128.343s.523.485.639.771.173.801.173 1.547v3.421z"/><path d="M-158.058 109.828h-.861v-3.803c0-.547-.119-.932-.357-1.154s-.527-.334-.867-.334c-.469 0-.862.188-1.181.562s-.478.869-.478 1.482v3.246h-.92v-5.918h.855v1.091c.48-.836 1.104-1.254 1.869-1.254.441 0 .817.114 1.128.343s.523.485.639.771.173.801.173 1.547v3.421z"/><path d="M-154.097 109.992c-.812 0-1.446-.301-1.901-.903-.455-.602-.683-1.349-.683-2.24 0-.942.256-1.695.768-2.258s1.148-.845 1.91-.845c.816 0 1.46.296 1.931.889s.706 1.332.706 2.22c0 .923-.254 1.676-.762 2.261-.508.584-1.164.876-1.969.876zm.07-.762c.469 0 .861-.193 1.178-.58s.475-.988.475-1.805c0-.82-.166-1.415-.498-1.784s-.721-.554-1.166-.554c-.457 0-.844.187-1.16.56s-.475.964-.475 1.772c0 .855.158 1.468.475 1.837s.706.554 1.171.554z"/><path d="M-145.853 103.91l-2.046 5.918h-.948l-2.121-5.918h1.021l1.648 4.811 1.628-4.811h.818z"/><path d="M-140.275 109.828h-.908c-.035-.188-.07-.543-.105-1.066-.406.82-1.098 1.23-2.074 1.23-.664 0-1.174-.176-1.529-.528s-.533-.774-.533-1.268c0-.599.254-1.09.762-1.476s1.371-.578 2.59-.578l.785.023c0-.469-.036-.808-.108-1.017s-.226-.376-.46-.501-.543-.188-.926-.188c-.934 0-1.477.355-1.629 1.066l-.85-.146c.207-1.09 1.078-1.635 2.613-1.635.816 0 1.396.181 1.737.542s.513.987.513 1.878v2.514c-.001.42.04.802.122 1.15zm-1.014-2.959c-.375-.023-.66-.035-.855-.035-.727 0-1.291.12-1.693.358s-.604.587-.604 1.045c0 .29.108.537.325.74.217.204.53.306.94.306.555 0 1.011-.202 1.368-.605s.536-.877.536-1.421l-.017-.388z"/><path d="M-135.875 109.201v.727c-.324.043-.605.064-.844.064-1.145 0-1.717-.598-1.717-1.795v-3.566h-1.049v-.721h1.049l.041-1.488.855-.082v1.57h1.324v.721h-1.324v3.72c0 .61.316.915.949.915.213 0 .451-.022.716-.065z"/><path d="M-133.917 101.83v1.025h-.99v-1.025h.99zm-.03 2.08v5.918h-.92v-5.918h.92z"/><path d="M-129.992 109.992c-.812 0-1.446-.301-1.901-.903-.455-.602-.683-1.349-.683-2.24 0-.942.256-1.695.768-2.258s1.148-.845 1.91-.845c.816 0 1.46.296 1.931.889s.706 1.332.706 2.22c0 .923-.254 1.676-.762 2.261-.508.584-1.164.876-1.969.876zm.071-.762c.469 0 .861-.193 1.178-.58s.475-.988.475-1.805c0-.82-.166-1.415-.498-1.784s-.721-.554-1.166-.554c-.457 0-.844.187-1.16.56s-.475.964-.475 1.772c0 .855.158 1.468.475 1.837s.706.554 1.171.554z"/><path d="M-121.214 109.828h-.861v-3.803c0-.547-.119-.932-.357-1.154s-.527-.334-.867-.334c-.469 0-.862.188-1.181.562s-.478.869-.478 1.482v3.246h-.92v-5.918h.855v1.091c.48-.836 1.104-1.254 1.869-1.254.441 0 .817.114 1.128.343s.523.485.639.771.173.801.173 1.547v3.421z"/><path d="M-111.5 107.139l.914.205c-.438 1.766-1.426 2.648-2.965 2.648-1.012 0-1.806-.408-2.382-1.226-.576-.817-.864-1.821-.864-3.014 0-1.231.301-2.22.902-2.967s1.408-1.12 2.42-1.12c1.5 0 2.463.857 2.889 2.572l-.943.188c-.344-1.273-.994-1.91-1.951-1.91-.707 0-1.255.296-1.644.888s-.583 1.423-.583 2.493c0 .98.199 1.767.598 2.358s.926.888 1.582.888c1.02.001 1.695-.667 2.027-2.003z"/><path d="M-105.517 108.064l.855.176c-.156.506-.461.924-.914 1.255-.453.331-.986.497-1.6.497-.809 0-1.463-.284-1.963-.854-.5-.569-.75-1.314-.75-2.237 0-.942.26-1.704.779-2.284s1.172-.871 1.957-.871c.773 0 1.396.268 1.866.803s.712 1.336.724 2.402h-4.301c0 .895.188 1.498.562 1.811s.771.469 1.189.469c.756-.001 1.287-.389 1.596-1.167zm-.053-1.798c-.008-.332-.062-.627-.164-.885s-.273-.478-.516-.659-.533-.272-.873-.272c-.457 0-.845.164-1.163.492s-.497.77-.536 1.324h3.252z"/><path d="M-98.515 109.828h-.861v-3.803c0-.547-.119-.932-.357-1.154s-.527-.334-.867-.334c-.469 0-.862.188-1.181.562s-.478.869-.478 1.482v3.246h-.92v-5.918h.855v1.091c.48-.836 1.104-1.254 1.869-1.254.441 0 .817.114 1.128.343s.523.485.639.771.173.801.173 1.547v3.421z"/><path d="M-93.992 109.201v.727c-.324.043-.605.064-.844.064-1.145 0-1.717-.598-1.717-1.795v-3.566h-1.049v-.721h1.049l.041-1.488.855-.082v1.57h1.324v.721h-1.324v3.72c0 .61.316.915.949.915.212 0 .451-.022.716-.065z"/><path d="M-92.064 109.828h-.92v-5.918h.809v1.383c.285-.652.571-1.075.858-1.269s.581-.29.882-.29l.363.023v.879h-.188c-.508 0-.93.189-1.266.568s-.516.877-.539 1.494v3.13z"/><path d="M-85.121 108.064l.855.176c-.156.506-.461.924-.914 1.255-.453.331-.986.497-1.6.497-.809 0-1.463-.284-1.963-.854-.5-.569-.75-1.314-.75-2.237 0-.942.26-1.704.779-2.284s1.172-.871 1.957-.871c.773 0 1.396.268 1.866.803s.712 1.336.724 2.402h-4.301c0 .895.188 1.498.562 1.811s.771.469 1.189.469c.757-.001 1.288-.389 1.596-1.167zm-.052-1.798c-.008-.332-.062-.627-.164-.885s-.273-.478-.516-.659-.533-.272-.873-.272c-.457 0-.845.164-1.163.492s-.497.77-.536 1.324h3.252z"/><path d="M-81.564 108.492v1.201l-.873 1.641h-.498l.691-1.506h-.598v-1.336h1.278z"/><path d="M-218.761 123.828h-1.031c0-1.34.273-2.644.82-3.911s1.217-2.337 2.01-3.208h-4.342l.1-.879h5.285v.598c-.953 1.148-1.666 2.344-2.139 3.586s-.709 2.422-.709 3.539l.006.275z"/><path d="M-211.074 123.828h-.961v-1.904h-3.961v-.674l3.678-5.584h1.244v5.467h1.295v.791h-1.295v1.904zm-.961-2.695v-3.78c0-.273.006-.568.018-.884-.168.308-.312.558-.435.749l-2.501 3.915h2.918z"/><path d="M-203.462 115.83l-.082.861h-3.932l-.17 2.596c.594-.582 1.246-.873 1.957-.873.75 0 1.397.26 1.942.78s.817 1.185.817 1.994c0 .821-.296 1.494-.888 2.018-.592.524-1.315.786-2.171.786-.672 0-1.27-.176-1.793-.527s-.867-.807-1.031-1.365l.85-.293c.353.93 1.014 1.395 1.983 1.395.638 0 1.145-.188 1.52-.566.376-.377.563-.859.563-1.446 0-.614-.186-1.093-.557-1.438s-.816-.517-1.336-.517c-.758 0-1.385.363-1.881 1.09l-.791-.17.258-4.324h4.742z"/><path d="M-197.287 123.828h-1.002v-7.998h4.898v.879h-3.896v2.525h3.229v.809h-3.229v3.785z"/><path d="M-191.328 115.83v1.025h-.99v-1.025h.99zm-.029 2.08v5.918h-.92v-5.918h.92z"/><path d="M-187.068 117.91v.721h-1.406v5.197h-.92v-5.197h-1.008v-.721h1.008c.016-.949.198-1.561.548-1.834s.776-.41 1.28-.41c.246 0 .527.027.844.082v.732c-.199-.051-.389-.076-.568-.076-.402 0-.7.089-.894.267s-.29.511-.29.999v.24h1.406z"/><path d="M-182.908 123.201v.727c-.324.043-.605.064-.844.064-1.145 0-1.717-.598-1.717-1.795v-3.566h-1.049v-.721h1.049l.041-1.488.855-.082v1.57h1.324v.721h-1.324v3.72c0 .61.316.915.949.915.212 0 .451-.022.716-.065z"/><path d="M-177.259 123.828h-.92v-3.592c0-.422-.026-.738-.079-.949s-.178-.394-.375-.548-.425-.231-.683-.231c-.473 0-.868.193-1.187.58s-.478.904-.478 1.553v3.188h-.92v-7.998h.92v3.169c.418-.836 1.016-1.254 1.793-1.254.348 0 .657.068.929.205s.479.316.624.539.243.442.296.659.079.579.079 1.087v3.592z"/><path d="M-166.951 123.828h-1.023l-.805-2.338h-2.968l-.715 2.338h-.838l2.599-7.998h1.134l2.616 7.998zm-2.041-3.088l-1.239-3.844-1.237 3.844h2.476z"/><path d="M-161.966 117.91l-2.046 5.918h-.948l-2.121-5.918h1.021l1.648 4.811 1.628-4.811h.818z"/><path d="M-157.173 122.064l.855.176c-.156.506-.461.924-.914 1.255-.453.331-.986.497-1.6.497-.809 0-1.463-.284-1.963-.854-.5-.569-.75-1.314-.75-2.237 0-.942.26-1.704.779-2.284s1.172-.871 1.957-.871c.773 0 1.396.268 1.866.803s.712 1.336.724 2.402h-4.301c0 .895.188 1.498.562 1.811s.771.469 1.189.469c.756-.001 1.287-.389 1.596-1.167zm-.053-1.798c-.008-.332-.062-.627-.164-.885s-.273-.478-.516-.659-.533-.272-.873-.272c-.457 0-.845.164-1.163.492s-.497.77-.536 1.324h3.252z"/><path d="M-150.171 123.828h-.861v-3.803c0-.547-.119-.932-.357-1.154s-.527-.334-.867-.334c-.469 0-.862.188-1.181.562s-.478.869-.478 1.482v3.246h-.92v-5.918h.855v1.091c.48-.836 1.104-1.254 1.869-1.254.441 0 .817.114 1.128.343s.523.485.639.771.173.801.173 1.547v3.421z"/><path d="M-143.673 123.828h-.832v-1.131c-.421.863-1.049 1.295-1.884 1.295-.604 0-1.079-.199-1.425-.598-.345-.399-.518-.966-.518-1.701v-3.783h.92v3.779c0 .586.122.989.366 1.21s.513.331.806.331c.297 0 .565-.084.806-.252s.44-.407.601-.718.24-.649.24-1.017v-3.334h.92v5.919z"/><path d="M-137.925 122.064l.855.176c-.156.506-.461.924-.914 1.255-.453.331-.986.497-1.6.497-.809 0-1.463-.284-1.963-.854-.5-.569-.75-1.314-.75-2.237 0-.942.26-1.704.779-2.284s1.172-.871 1.957-.871c.773 0 1.396.268 1.866.803s.712 1.336.724 2.402h-4.301c0 .895.188 1.498.562 1.811s.771.469 1.189.469c.756-.001 1.287-.389 1.596-1.167zm-.053-1.798c-.008-.332-.062-.627-.164-.885s-.273-.478-.516-.659-.533-.272-.873-.272c-.457 0-.845.164-1.163.492s-.497.77-.536 1.324h3.252z"/><path d="M-134.369 122.492v1.201l-.873 1.641h-.498l.691-1.506h-.598v-1.336h1.278z"/><path d="M-123.798 123.084v.744h-5.607v-.744h2.402v-6.176c-.707.738-1.441 1.314-2.203 1.729v-1.008c1.051-.551 1.865-1.205 2.443-1.963h.721v7.418h2.244z"/><path d="M-122.943 122.375l.803-.293c.332.738.891 1.107 1.676 1.107.762 0 1.335-.32 1.72-.961s.583-1.51.595-2.607c-.523.961-1.311 1.441-2.361 1.441-.742 0-1.365-.253-1.869-.76-.504-.506-.756-1.133-.756-1.88 0-.758.265-1.408.794-1.947s1.204-.81 2.024-.81c1.004 0 1.773.353 2.309 1.059s.803 1.676.803 2.911c0 1.298-.283 2.348-.85 3.151s-1.373 1.205-2.42 1.205c-1.224.001-2.046-.538-2.468-1.616zm2.654-2.115c.551 0 1.013-.192 1.386-.578.373-.385.56-.836.56-1.353 0-.501-.177-.931-.53-1.291s-.819-.54-1.397-.54c-.586 0-1.049.185-1.389.555s-.51.82-.51 1.353c0 .571.188 1.023.565 1.355.377.333.815.499 1.315.499z"/><path d="M-112.988 123.201v.727c-.324.043-.605.064-.844.064-1.145 0-1.717-.598-1.717-1.795v-3.566h-1.049v-.721h1.049l.041-1.488.855-.082v1.57h1.324v.721h-1.324v3.72c0 .61.316.915.949.915.212 0 .451-.022.716-.065z"/><path d="M-107.339 123.828h-.92v-3.592c0-.422-.026-.738-.079-.949s-.178-.394-.375-.548-.425-.231-.683-.231c-.473 0-.868.193-1.187.58s-.478.904-.478 1.553v3.188h-.92v-7.998h.92v3.169c.418-.836 1.016-1.254 1.793-1.254.348 0 .657.068.929.205s.479.316.624.539.243.442.296.659.079.579.079 1.087v3.592z"/><path d="M-101.416 123.828h-1.002v-7.998h4.898v.879h-3.896v2.525h3.229v.809h-3.229v3.785z"/><path d="M-95.486 123.828h-.92v-7.998h.92v7.998z"/><path d="M-91.525 123.992c-.812 0-1.446-.301-1.901-.903-.455-.602-.683-1.349-.683-2.24 0-.942.256-1.695.768-2.258s1.148-.845 1.91-.845c.816 0 1.46.296 1.931.889s.706 1.332.706 2.22c0 .923-.254 1.676-.762 2.261-.508.584-1.164.876-1.969.876zm.07-.762c.469 0 .861-.193 1.178-.58s.475-.988.475-1.805c0-.82-.166-1.415-.498-1.784s-.721-.554-1.166-.554c-.457 0-.844.187-1.16.56s-.475.964-.475 1.772c0 .855.158 1.468.475 1.837s.707.554 1.171.554z"/><path d="M-85.291 123.992c-.812 0-1.446-.301-1.901-.903-.455-.602-.683-1.349-.683-2.24 0-.942.256-1.695.768-2.258s1.148-.845 1.91-.845c.816 0 1.46.296 1.931.889s.705 1.332.705 2.22c0 .923-.254 1.676-.762 2.261-.507.584-1.163.876-1.968.876zm.071-.762c.469 0 .861-.193 1.178-.58.316-.387.474-.988.474-1.805 0-.82-.166-1.415-.498-1.784-.332-.369-.721-.554-1.166-.554-.457 0-.844.187-1.16.56s-.475.964-.475 1.772c0 .855.158 1.468.475 1.837s.707.554 1.172.554z"/><path d="M-80.258 123.828h-.92v-5.918h.809v1.383c.285-.652.572-1.075.859-1.269s.58-.29.881-.29l.363.023v.879h-.188c-.508 0-.93.189-1.266.568s-.516.877-.539 1.494v3.13z"/><rect x="-222.469" y="132.363" width="144.667" height="1"/><path d="M-182.645 94.17c-1.027 0-1.828-.399-2.402-1.199-.574-.799-.861-1.779-.861-2.94 0-1.212.301-2.212.902-3.002s1.398-1.185 2.391-1.185c.988 0 1.781.388 2.379 1.164s.896 1.754.896 2.935c0 1.134-.29 2.122-.87 2.964-.58.842-1.392 1.263-2.435 1.263zm.024-.815c.699 0 1.246-.318 1.641-.956.395-.637.592-1.458.592-2.463 0-1.032-.204-1.835-.612-2.41s-.95-.862-1.626-.862c-.684 0-1.227.311-1.629.933s-.604 1.435-.604 2.439c0 .981.203 1.78.609 2.396s.949.923 1.629.923z"/><path d="M-173.041 91.316l.914.205c-.438 1.766-1.426 2.648-2.965 2.648-1.012 0-1.806-.408-2.382-1.226-.576-.817-.864-1.821-.864-3.014 0-1.231.301-2.22.902-2.967s1.408-1.12 2.42-1.12c1.5 0 2.463.857 2.889 2.572l-.943.188c-.344-1.273-.994-1.91-1.951-1.91-.707 0-1.255.296-1.644.888s-.583 1.423-.583 2.493c0 .98.199 1.767.598 2.358s.926.888 1.582.888c1.019.001 1.695-.667 2.027-2.003z"/><path d="M-168.471 94.006h-1.002v-7.119h-2.291v-.879h5.59v.879h-2.297v7.119z"/><path d="M-162.658 94.17c-1.027 0-1.828-.399-2.402-1.199-.574-.799-.861-1.779-.861-2.94 0-1.212.301-2.212.902-3.002s1.398-1.185 2.391-1.185c.988 0 1.781.388 2.379 1.164s.896 1.754.896 2.935c0 1.134-.29 2.122-.87 2.964-.581.842-1.392 1.263-2.435 1.263zm.023-.815c.699 0 1.246-.318 1.641-.956.395-.637.592-1.458.592-2.463 0-1.032-.204-1.835-.612-2.41s-.95-.862-1.626-.862c-.684 0-1.227.311-1.629.933s-.604 1.435-.604 2.439c0 .981.203 1.78.609 2.396s.95.923 1.629.923z"/><path d="M-157.848 94.006v-7.998h3.164c.797 0 1.388.195 1.772.585.385.391.577.843.577 1.358 0 .906-.473 1.506-1.418 1.803.562.145.98.403 1.254.774.273.372.41.792.41 1.261 0 .629-.212 1.156-.636 1.58-.424.424-1.077.636-1.96.636h-3.163zm.967-4.57h1.74c.723 0 1.205-.138 1.447-.413s.363-.599.363-.97c0-.367-.13-.664-.39-.891s-.647-.34-1.163-.34h-1.998v2.614zm0 3.691h2.145c.523 0 .928-.127 1.213-.381s.428-.584.428-.99c0-.285-.064-.55-.193-.794s-.311-.433-.545-.565-.584-.199-1.049-.199h-1.998v2.929z"/><path d="M-145.419 93.127v.879h-5.174v-7.998h5.063v.879h-4.061v2.543h3.223v.814h-3.223v2.883h4.172z"/><path d="M-138.265 94.006h-1.051l-1.475-3.463h-2.291v3.463h-.938v-7.998h3.152c.855 0 1.488.233 1.9.7s.619.978.619 1.532c0 .426-.115.834-.346 1.225s-.611.67-1.143.838l1.573 3.703zm-4.817-4.277h2.092c.551 0 .961-.146 1.232-.437s.408-.647.408-1.069-.145-.75-.432-.984-.648-.352-1.086-.352h-2.215v2.842z"/><path d="M-132.347 90.244v-.791h.914c.668 0 1.145-.137 1.432-.412.287-.275.432-.608.432-1 0-.432-.16-.774-.48-1.027s-.723-.379-1.207-.379c-.898 0-1.52.436-1.863 1.307l-.902-.258c.516-1.227 1.469-1.84 2.859-1.84.781 0 1.412.208 1.893.625s.721.917.721 1.504c0 .454-.145.85-.434 1.188-.289.338-.66.55-1.113.636.508.074.943.288 1.309.639.365.352.549.807.549 1.366 0 .668-.271 1.23-.814 1.686s-1.287.683-2.232.683c-.75 0-1.393-.178-1.926-.533s-.9-.828-1.104-1.418l.932-.311c.281.965.975 1.447 2.08 1.447.719 0 1.234-.153 1.549-.461.314-.307.473-.674.473-1.101 0-.462-.189-.835-.566-1.121s-.904-.429-1.584-.429h-.918z"/><path d="M-124.103 94.17c-.922 0-1.658-.399-2.209-1.199-.551-.799-.826-1.791-.826-2.976 0-1.165.262-2.148.785-2.949s1.264-1.202 2.221-1.202c1 0 1.758.418 2.275 1.255s.777 1.817.777 2.943c0 1.103-.266 2.066-.797 2.891-.531.825-1.273 1.237-2.226 1.237zm.006-.791c.676 0 1.176-.306 1.5-.917s.486-1.38.486-2.306c0-1.012-.166-1.854-.498-2.525s-.844-1.008-1.535-1.008c-.668 0-1.166.307-1.492.92s-.488 1.42-.488 2.42c0 1.039.172 1.868.516 2.487s.847.929 1.511.929z"/><path d="M-118.167 90.588v.484c-.219.029-.408.043-.568.043-.771 0-1.156-.399-1.156-1.197v-2.377h-.705v-.48h.705l.028-.992.575-.055v1.047h.893v.48h-.893v2.479c0 .407.214.61.64.61.141.001.302-.013.481-.042z"/><path d="M-114.365 91.006h-.619v-2.395c0-.281-.018-.492-.053-.633s-.12-.262-.253-.365-.286-.154-.46-.154c-.318 0-.584.129-.799.387-.214.258-.321.603-.321 1.035v2.125h-.619v-5.332h.619v2.113c.281-.557.685-.836 1.208-.836.233 0 .441.045.625.137.183.091.322.211.42.359s.164.295.199.439.053.386.053.725v2.395z"/><rect x="-108.136" y="89.46" width="30.333" height="1"/><rect x="-222.469" y="89.46" width="30.333" height="1"/><g fill="#fff"><path d="M-247.82 31.631h-1.386v-9.841h-3.167v-1.216h7.728v1.216h-3.175v9.841z"/><path d="M-236.804 31.631h-1.271v-4.966c0-.583-.037-1.02-.109-1.312-.074-.292-.246-.544-.519-.757-.272-.214-.587-.32-.943-.32-.654 0-1.2.267-1.641.802-.44.535-.66 1.25-.66 2.146v4.407h-1.272v-11.057h1.272v4.383c.578-1.156 1.404-1.734 2.479-1.734.481 0 .909.095 1.285.284.375.189.663.438.862.746s.336.611.409.911.109.801.109 1.502v4.965z"/><path d="M-228.856 29.193l1.183.243c-.216.699-.638 1.277-1.264 1.735-.626.458-1.363.687-2.211.687-1.118 0-2.022-.393-2.714-1.18-.691-.787-1.037-1.817-1.037-3.093 0-1.303.359-2.355 1.078-3.157.718-.803 1.62-1.205 2.706-1.205 1.069 0 1.929.371 2.58 1.11.651.74.984 1.848 1 3.322h-5.945c0 1.237.259 2.071.777 2.503.519.432 1.066.648 1.645.648 1.04-.001 1.774-.538 2.202-1.613zm-.074-2.487c-.011-.458-.086-.867-.227-1.223-.141-.356-.378-.66-.713-.911-.334-.251-.736-.376-1.207-.376-.632 0-1.168.227-1.608.68-.44.454-.687 1.064-.741 1.831h4.496z"/><path d="M-210.687 31.631h-1.345v-9.656l-3.588 9.656h-.94l-3.629-9.656v9.656h-1.174v-11.057h2.051l3.34 8.845 3.262-8.845h2.024v11.057z"/><path d="M-207.925 31.631v-11.057h3.71c1.561 0 2.775.532 3.645 1.596.87 1.063 1.305 2.366 1.305 3.904 0 1.562-.424 2.877-1.272 3.95-.847 1.071-1.922 1.607-3.224 1.607h-4.164zm1.385-1.174h2.244c1.188 0 2.09-.41 2.705-1.231.616-.821.923-1.904.923-3.248 0-1.091-.293-2.071-.879-2.94-.586-.87-1.502-1.305-2.75-1.305h-2.244v8.724z"/><path d="M-190.565 27.913l1.263.283c-.604 2.441-1.971 3.662-4.099 3.662-1.399 0-2.497-.564-3.293-1.695-.796-1.129-1.195-2.517-1.195-4.166 0-1.703.416-3.07 1.248-4.102.832-1.032 1.946-1.548 3.345-1.548 2.074 0 3.405 1.186 3.994 3.556l-1.304.259c-.475-1.761-1.374-2.641-2.698-2.641-.977 0-1.735.409-2.272 1.227-.537.818-.806 1.967-.806 3.447 0 1.355.275 2.442.826 3.26.55.818 1.28 1.227 2.187 1.227 1.411.002 2.345-.922 2.804-2.769z"/><path d="M-182.051 31.631h-1.386v-11.057h1.386v11.057z"/><path d="M-172.955 31.631h-1.191v-5.257c0-.756-.165-1.288-.494-1.596-.33-.308-.729-.462-1.199-.462-.648 0-1.192.259-1.633.778-.439.519-.66 1.202-.66 2.05v4.487h-1.271v-8.181h1.183v1.507c.664-1.156 1.526-1.734 2.584-1.734.61 0 1.129.158 1.559.474.429.316.723.671.883 1.065.159.394.239 1.107.239 2.139v4.73z"/><path d="M-163.963 31.631h-1.191v-5.257c0-.756-.164-1.288-.494-1.596-.329-.308-.729-.462-1.199-.462-.648 0-1.192.259-1.633.778-.439.519-.66 1.202-.66 2.05v4.487h-1.272v-8.181h1.184v1.507c.664-1.156 1.525-1.734 2.583-1.734.61 0 1.13.158 1.56.474.429.316.724.671.883 1.065.159.394.239 1.107.239 2.139v4.73z"/><path d="M-158.487 31.858c-1.124 0-2-.416-2.629-1.249-.629-.833-.943-1.865-.943-3.098 0-1.302.354-2.343 1.062-3.122.707-.778 1.587-1.168 2.641-1.168 1.129 0 2.019.41 2.669 1.229.651.818.976 1.841.976 3.068 0 1.275-.351 2.317-1.053 3.125-.704.812-1.611 1.215-2.723 1.215zm.097-1.053c.648 0 1.19-.268 1.628-.802.438-.535.656-1.366.656-2.495 0-1.134-.229-1.957-.688-2.466-.459-.511-.996-.766-1.611-.766-.632 0-1.167.258-1.604.773-.437.516-.656 1.333-.656 2.45 0 1.183.219 2.029.656 2.54.437.511.976.766 1.619.766z"/><path d="M-147.09 23.45l-2.828 8.182h-1.311l-2.933-8.182h1.411l2.279 6.651 2.25-6.651h1.132z"/><path d="M-139.378 31.631h-1.256c-.048-.259-.097-.75-.146-1.474-.562 1.134-1.518 1.701-2.868 1.701-.918 0-1.623-.244-2.114-.731-.492-.486-.737-1.07-.737-1.752 0-.827.351-1.507 1.053-2.039.702-.533 1.896-.8 3.581-.8.227 0 .588.011 1.085.033 0-.648-.05-1.117-.15-1.406-.1-.289-.312-.52-.636-.692-.324-.173-.75-.259-1.279-.259-1.291 0-2.042.491-2.252 1.474l-1.174-.203c.286-1.506 1.49-2.26 3.612-2.26 1.129 0 1.93.25 2.402.75.472.5.708 1.365.708 2.597v3.475c.001.577.057 1.106.171 1.586zm-1.401-4.09c-.519-.032-.913-.048-1.183-.048-1.005 0-1.785.166-2.341.496-.556.33-.834.811-.834 1.445 0 .4.149.742.449 1.022.299.282.733.423 1.3.423.767 0 1.397-.279 1.891-.836.494-.558.742-1.212.742-1.965l-.024-.537z"/><path d="M-133.295 30.765v1.005c-.448.059-.836.089-1.167.089-1.582 0-2.373-.827-2.373-2.482v-4.93h-1.45v-.997h1.45l.057-2.058 1.183-.113v2.17h1.831v.997h-1.831v5.143c0 .843.437 1.265 1.312 1.265.292 0 .621-.03.988-.089z"/><path d="M-130.589 20.574v1.418h-1.369v-1.418h1.369zm-.04 2.876v8.182h-1.272v-8.182h1.272z"/><path d="M-125.162 31.858c-1.124 0-2-.416-2.629-1.249-.629-.833-.943-1.865-.943-3.098 0-1.302.354-2.343 1.062-3.122.707-.778 1.587-1.168 2.641-1.168 1.129 0 2.019.41 2.669 1.229.651.818.976 1.841.976 3.068 0 1.275-.351 2.317-1.053 3.125-.703.812-1.61 1.215-2.723 1.215zm.098-1.053c.648 0 1.19-.268 1.628-.802.438-.535.656-1.366.656-2.495 0-1.134-.229-1.957-.688-2.466-.459-.511-.996-.766-1.612-.766-.631 0-1.166.258-1.604.773-.437.516-.656 1.333-.656 2.45 0 1.183.219 2.029.656 2.54.437.511.977.766 1.62.766z"/><path d="M-113.027 31.631h-1.19v-5.257c0-.756-.165-1.288-.495-1.596-.329-.308-.729-.462-1.199-.462-.648 0-1.192.259-1.632.778-.44.519-.66 1.202-.66 2.05v4.487h-1.271v-8.181h1.183v1.507c.664-1.156 1.525-1.734 2.584-1.734.61 0 1.129.158 1.559.474.429.316.724.671.883 1.065.159.394.239 1.107.239 2.139v4.73z"/><path d="M-99.596 27.913l1.263.283c-.605 2.441-1.971 3.662-4.099 3.662-1.399 0-2.497-.564-3.293-1.695-.797-1.129-1.195-2.517-1.195-4.166 0-1.703.416-3.07 1.248-4.102.832-1.032 1.947-1.548 3.345-1.548 2.074 0 3.405 1.186 3.994 3.556l-1.304.259c-.476-1.761-1.375-2.641-2.698-2.641-.977 0-1.735.409-2.271 1.227-.538.818-.806 1.967-.806 3.447 0 1.355.275 2.442.826 3.26.55.818 1.28 1.227 2.187 1.227 1.41.002 2.344-.922 2.803-2.769z"/><path d="M-91.326 29.193l1.183.243c-.216.699-.637 1.277-1.264 1.735-.626.458-1.364.687-2.212.687-1.118 0-2.022-.393-2.713-1.18-.692-.787-1.037-1.817-1.037-3.093 0-1.303.359-2.355 1.078-3.157.718-.803 1.62-1.205 2.705-1.205 1.07 0 1.93.371 2.581 1.11.65.74.984 1.848 1 3.322h-5.946c0 1.237.259 2.071.778 2.503.519.432 1.066.648 1.644.648 1.043-.001 1.777-.538 2.203-1.613zm-.072-2.487c-.011-.458-.087-.867-.227-1.223-.141-.356-.378-.66-.713-.911-.335-.251-.737-.376-1.207-.376-.632 0-1.167.227-1.607.68-.44.454-.688 1.064-.742 1.831h4.496z"/><path d="M-81.646 31.631h-1.19v-5.257c0-.756-.165-1.288-.494-1.596-.33-.308-.729-.462-1.199-.462-.648 0-1.192.259-1.632.778-.44.519-.661 1.202-.661 2.05v4.487h-1.271v-8.181h1.183v1.507c.664-1.156 1.525-1.734 2.584-1.734.61 0 1.13.158 1.559.474.43.316.725.671.883 1.065.16.394.239 1.107.239 2.139v4.73z"/><path d="M-75.392 30.765v1.005c-.448.059-.837.089-1.167.089-1.582 0-2.373-.827-2.373-2.482v-4.93h-1.45v-.997h1.45l.057-2.058 1.183-.113v2.17h1.831v.997h-1.831v5.143c0 .843.438 1.265 1.312 1.265.291 0 .621-.03.988-.089z"/><path d="M-72.727 31.631h-1.272v-8.181h1.118v1.912c.395-.902.79-1.486 1.187-1.754.397-.267.804-.401 1.22-.401.13 0 .297.011.502.033v1.215h-.259c-.702 0-1.285.262-1.75.785-.464.524-.713 1.212-.745 2.066v4.325z"/><path d="M-63.128 29.193l1.183.243c-.215.699-.637 1.277-1.264 1.735-.626.458-1.363.687-2.211.687-1.118 0-2.022-.393-2.714-1.18-.691-.787-1.036-1.817-1.036-3.093 0-1.303.358-2.355 1.076-3.157.719-.803 1.621-1.205 2.706-1.205 1.069 0 1.93.371 2.58 1.11.651.74.984 1.848 1.001 3.322h-5.946c0 1.237.259 2.071.777 2.503.519.432 1.067.648 1.645.648 1.042-.001 1.777-.538 2.203-1.613zm-.072-2.487c-.011-.458-.087-.867-.228-1.223-.14-.356-.378-.66-.712-.911-.335-.251-.738-.376-1.207-.376-.632 0-1.168.227-1.608.68-.439.454-.688 1.064-.741 1.831h4.496z"/><path d="M-58.211 29.785v1.661l-1.207 2.268h-.688l.955-2.082h-.826v-1.847h1.766z"/><path d="M-247.885 50.986h-1.426c0-1.853.378-3.655 1.134-5.407.756-1.752 1.682-3.23 2.778-4.435h-6.003l.138-1.215h7.307v.826c-1.318 1.588-2.303 3.24-2.957 4.958-.653 1.717-.981 3.349-.981 4.893l.01.38z"/><path d="M-237.257 50.986h-1.329v-2.633h-5.475v-.932l5.084-7.719h1.72v7.558h1.79v1.093h-1.79v2.633zm-1.329-3.726v-5.226c0-.378.008-.785.024-1.222-.231.425-.432.771-.601 1.035l-3.457 5.413h4.034z"/><path d="M-226.734 39.929l-.114 1.191h-5.435l-.235 3.588c.821-.805 1.723-1.207 2.705-1.207 1.037 0 1.933.36 2.686 1.079.753.719 1.129 1.638 1.129 2.757 0 1.136-.409 2.065-1.227 2.789-.818.726-1.818 1.087-3.001 1.087-.929 0-1.755-.243-2.479-.729-.724-.486-1.199-1.115-1.425-1.888l1.174-.405c.487 1.285 1.401 1.927 2.742 1.927.881 0 1.582-.26 2.101-.782.52-.522.779-1.188.779-2 0-.849-.257-1.511-.77-1.987s-1.129-.714-1.847-.714c-1.048 0-1.915.502-2.601 1.507l-1.094-.235.356-5.978h6.556z"/><path d="M-218.196 50.986h-1.386v-11.057h6.772v1.215h-5.386v3.491h4.463v1.117h-4.463v5.234z"/><path d="M-209.958 39.929v1.417h-1.368v-1.417h1.368zm-.041 2.876v8.182h-1.271v-8.182h1.271z"/><path d="M-204.069 42.805v.997h-1.944v7.185h-1.272v-7.185h-1.393v-.997h1.393c.021-1.312.274-2.157.758-2.535.483-.378 1.073-.567 1.77-.567.34 0 .729.038 1.167.113v1.013c-.275-.071-.537-.106-.786-.106-.557 0-.968.124-1.235.369-.267.245-.401.706-.401 1.381v.332h1.943z"/><path d="M-198.318 50.119v1.005c-.448.06-.837.089-1.167.089-1.582 0-2.373-.827-2.373-2.481v-4.931h-1.45v-.997h1.45l.057-2.058 1.183-.113v2.171h1.831v.997h-1.831v5.142c0 .843.438 1.266 1.312 1.266.292 0 .621-.03.988-.09z"/><path d="M-190.508 50.986h-1.272v-4.966c0-.583-.036-1.021-.109-1.312s-.246-.544-.519-.758c-.272-.213-.587-.32-.943-.32-.653 0-1.2.268-1.641.802-.44.535-.66 1.25-.66 2.146v4.407h-1.271v-11.056h1.271v4.383c.578-1.156 1.404-1.734 2.479-1.734.48 0 .908.094 1.284.284.375.188.663.437.862.745.2.308.336.612.409.912.073.299.11.801.11 1.502v4.965z"/><path d="M-176.257 50.986h-1.415l-1.112-3.232h-4.103l-.989 3.232h-1.158l3.593-11.057h1.567l3.617 11.057zm-2.822-4.268l-1.713-5.314-1.711 5.314h3.424z"/><path d="M-169.366 42.805l-2.829 8.182h-1.311l-2.933-8.182h1.411l2.279 6.65 2.25-6.65h1.133z"/><path d="M-162.74 48.548l1.183.243c-.216.699-.637 1.277-1.264 1.736-.626.457-1.363.686-2.211.686-1.118 0-2.022-.393-2.714-1.18-.691-.787-1.037-1.817-1.037-3.093 0-1.303.359-2.355 1.078-3.158.718-.803 1.62-1.204 2.706-1.204 1.069 0 1.93.37 2.58 1.109.65.74.984 1.847 1 3.322h-5.945c0 1.236.259 2.071.778 2.502.518.433 1.066.649 1.644.649 1.041.001 1.775-.537 2.202-1.612zm-.073-2.486c-.011-.459-.086-.867-.227-1.224-.141-.356-.378-.66-.713-.911-.334-.251-.737-.376-1.207-.376-.632 0-1.168.227-1.608.68-.44.454-.688 1.064-.741 1.831h4.496z"/><path d="M-153.06 50.986h-1.191v-5.257c0-.756-.165-1.288-.494-1.596-.33-.308-.729-.462-1.199-.462-.647 0-1.192.259-1.632.778-.44.519-.66 1.202-.66 2.049v4.488h-1.271v-8.182h1.183v1.507c.664-1.156 1.525-1.734 2.584-1.734.61 0 1.13.158 1.559.474.429.316.723.671.883 1.065s.239 1.107.239 2.138v4.732z"/><path d="M-144.076 50.986h-1.15v-1.563c-.582 1.193-1.45 1.79-2.604 1.79-.836 0-1.492-.275-1.97-.827-.477-.552-.715-1.335-.715-2.352v-5.23h1.271v5.225c0 .811.168 1.368.507 1.673.337.305.708.458 1.113.458.411 0 .782-.117 1.114-.349.332-.231.609-.563.831-.992.222-.429.332-.897.332-1.405v-4.609h1.272v8.181z"/><path d="M-136.129 48.548l1.183.243c-.216.699-.637 1.277-1.264 1.736-.626.457-1.363.686-2.211.686-1.118 0-2.022-.393-2.714-1.18-.691-.787-1.037-1.817-1.037-3.093 0-1.303.359-2.355 1.078-3.158.718-.803 1.62-1.204 2.706-1.204 1.069 0 1.93.37 2.58 1.109.65.74.984 1.847 1 3.322h-5.945c0 1.236.259 2.071.778 2.502.518.433 1.066.649 1.644.649 1.04.001 1.774-.537 2.202-1.612zm-.074-2.486c-.011-.459-.086-.867-.226-1.224-.141-.356-.378-.66-.713-.911-.334-.251-.737-.376-1.207-.376-.632 0-1.168.227-1.608.68-.44.454-.688 1.064-.741 1.831h4.495z"/><path d="M-131.212 49.14v1.66l-1.208 2.268h-.688l.956-2.082h-.826v-1.846h1.766z"/><path d="M-116.599 49.958v1.029h-7.752v-1.029h3.321v-8.538c-.978 1.021-1.992 1.817-3.046 2.39v-1.394c1.453-.762 2.579-1.667 3.378-2.713h.996v10.255h3.103z"/><path d="M-115.416 48.978l1.109-.405c.459 1.021 1.232 1.531 2.317 1.531 1.053 0 1.846-.442 2.377-1.328.532-.885.806-2.087.822-3.605-.723 1.329-1.812 1.993-3.264 1.993-1.026 0-1.887-.35-2.584-1.05-.696-.701-1.044-1.566-1.044-2.599 0-1.048.366-1.946 1.097-2.692.732-.746 1.665-1.119 2.799-1.119 1.388 0 2.452.487 3.192 1.463.739.975 1.11 2.317 1.11 4.025 0 1.794-.392 3.246-1.175 4.356-.783 1.11-1.898 1.666-3.346 1.666-1.691-.001-2.827-.746-3.41-2.236zm3.669-2.924c.762 0 1.4-.266 1.916-.8.515-.533.773-1.156.773-1.87 0-.692-.245-1.287-.733-1.785-.489-.497-1.133-.747-1.932-.747-.811 0-1.45.256-1.919.767-.47.511-.706 1.134-.706 1.87 0 .79.261 1.415.782 1.874.522.461 1.128.691 1.819.691z"/><path d="M-101.653 50.119v1.005c-.449.06-.837.089-1.167.089-1.583 0-2.374-.827-2.374-2.481v-4.931h-1.45v-.997h1.45l.057-2.058 1.183-.113v2.171h1.831v.997h-1.831v5.142c0 .843.437 1.266 1.312 1.266.291 0 .621-.03.989-.09z"/><path d="M-93.845 50.986h-1.271v-4.966c0-.583-.036-1.021-.109-1.312-.073-.292-.246-.544-.519-.758-.273-.213-.587-.32-.944-.32-.654 0-1.2.268-1.641.802s-.66 1.25-.66 2.146v4.407h-1.272v-11.056h1.272v4.383c.578-1.156 1.404-1.734 2.479-1.734.48 0 .908.094 1.284.284.375.188.663.437.863.745.199.308.336.612.409.912.073.299.109.801.109 1.502v4.965z"/><path d="M-85.655 50.986h-1.385v-11.057h6.771v1.215h-5.387v3.491h4.464v1.117h-4.464v5.234z"/><path d="M-77.458 50.986h-1.271v-11.057h1.271v11.057z"/><path d="M-71.981 51.213c-1.123 0-2-.416-2.629-1.249-.629-.833-.943-1.865-.943-3.097 0-1.303.354-2.343 1.062-3.121.707-.778 1.587-1.168 2.641-1.168 1.128 0 2.018.41 2.669 1.229.65.819.976 1.841.976 3.068 0 1.276-.351 2.317-1.053 3.126s-1.611 1.212-2.723 1.212zm.096-1.052c.648 0 1.191-.268 1.629-.802s.656-1.367.656-2.496c0-1.134-.23-1.956-.688-2.466-.46-.51-.997-.766-1.612-.766-.632 0-1.167.258-1.604.774-.438.516-.656 1.332-.656 2.45 0 1.183.218 2.029.656 2.54.437.51.977.766 1.619.766z"/><path d="M-63.362 51.213c-1.123 0-1.999-.416-2.629-1.249-.629-.833-.943-1.865-.943-3.097 0-1.303.354-2.343 1.061-3.121.708-.778 1.588-1.168 2.642-1.168 1.128 0 2.018.41 2.67 1.229.65.819.975 1.841.975 3.068 0 1.276-.351 2.317-1.053 3.126s-1.611 1.212-2.723 1.212zm.096-1.052c.648 0 1.191-.268 1.629-.802s.656-1.367.656-2.496c0-1.134-.229-1.956-.689-2.466-.458-.51-.996-.766-1.611-.766-.632 0-1.167.258-1.604.774-.437.516-.656 1.332-.656 2.45 0 1.183.22 2.029.656 2.54.437.51.978.766 1.619.766z"/><path d="M-56.404 50.986h-1.271v-8.182h1.118v1.912c.394-.902.79-1.487 1.187-1.754.396-.268.804-.401 1.219-.401.13 0 .297.011.503.032v1.215h-.26c-.701 0-1.285.262-1.75.786-.464.523-.712 1.212-.745 2.066v4.326z"/><rect x="-253.011" y="62.786" width="200" height="1.382"/><path d="M-197.954 9.984c-1.42 0-2.527-.552-3.321-1.658-.794-1.104-1.191-2.459-1.191-4.064 0-1.676.416-3.059 1.248-4.151.832-1.091 1.934-1.637 3.305-1.637 1.367 0 2.463.537 3.29 1.609.826 1.073 1.239 2.425 1.239 4.057 0 1.568-.4 2.933-1.203 4.097-.803 1.165-1.925 1.747-3.367 1.747zm.032-1.126c.967 0 1.723-.44 2.269-1.321.545-.881.818-2.016.818-3.405 0-1.427-.282-2.538-.847-3.332-.564-.795-1.313-1.192-2.248-1.192-.945 0-1.695.43-2.251 1.289s-.834 1.983-.834 3.373c0 1.356.281 2.46.842 3.312.562.85 1.312 1.276 2.251 1.276z"/><path d="M-184.677 6.04l1.264.283c-.605 2.441-1.972 3.661-4.099 3.661-1.399 0-2.497-.564-3.292-1.694-.798-1.129-1.196-2.518-1.196-4.167 0-1.702.416-3.069 1.247-4.102.832-1.032 1.947-1.548 3.345-1.548 2.074 0 3.405 1.186 3.994 3.556l-1.304.259c-.476-1.76-1.375-2.641-2.698-2.641-.978 0-1.735.409-2.272 1.227s-.806 1.967-.806 3.447c0 1.355.275 2.442.827 3.261.55.818 1.279 1.227 2.187 1.227 1.41.001 2.344-.923 2.803-2.769z"/><path d="M-178.359 9.757h-1.385v-9.842h-3.167v-1.215h7.728v1.215h-3.176v9.842z"/><path d="M-170.323 9.984c-1.42 0-2.527-.552-3.322-1.658-.793-1.104-1.19-2.459-1.19-4.064 0-1.676.416-3.059 1.248-4.151.831-1.091 1.933-1.637 3.305-1.637 1.367 0 2.462.537 3.289 1.609.827 1.073 1.239 2.425 1.239 4.057 0 1.568-.401 2.933-1.203 4.097-.802 1.165-1.924 1.747-3.366 1.747zm.032-1.126c.967 0 1.723-.44 2.269-1.321.545-.881.817-2.016.817-3.405 0-1.427-.282-2.538-.846-3.332-.564-.795-1.314-1.192-2.248-1.192-.945 0-1.696.43-2.252 1.289-.556.859-.834 1.983-.834 3.373 0 1.356.281 2.46.843 3.312.561.85 1.312 1.276 2.251 1.276z"/><path d="M-163.672 9.757v-11.057h4.374c1.102 0 1.919.27 2.451.809.532.54.798 1.166.798 1.878 0 1.252-.654 2.082-1.96 2.492.778.2 1.355.557 1.733 1.07.378.514.567 1.095.567 1.743 0 .87-.293 1.598-.879 2.184-.586.586-1.489.879-2.71.879h-4.374zm1.336-6.318h2.406c1 0 1.667-.19 2.001-.571.335-.381.502-.828.502-1.341 0-.507-.18-.918-.539-1.231-.359-.313-.895-.47-1.608-.47h-2.763v3.613zm0 5.103h2.965c.724 0 1.283-.175 1.677-.527.394-.351.591-.807.591-1.368 0-.395-.089-.761-.268-1.098-.178-.337-.429-.598-.753-.782-.324-.183-.807-.275-1.45-.275h-2.763v4.05z"/><path d="M-146.491 8.542v1.215h-7.153v-11.057h7v1.215h-5.614v3.516h4.456v1.126h-4.456v3.985h5.767z"/><path d="M-136.6 9.757h-1.453l-2.039-4.787h-3.167v4.787h-1.296v-11.057h4.358c1.183 0 2.057.323 2.627.968.57.646.856 1.352.856 2.118 0 .589-.16 1.153-.478 1.693s-.845.926-1.579 1.158l2.171 5.12zm-6.658-5.913h2.892c.762 0 1.329-.201 1.704-.604.375-.402.564-.895.564-1.478s-.2-1.038-.597-1.361-.896-.486-1.501-.486h-3.062v3.929z"/><path d="M-128.418 4.557v-1.094h1.263c.924 0 1.583-.19 1.979-.569.397-.38.597-.841.597-1.383 0-.597-.221-1.069-.664-1.42-.443-.349-.999-.524-1.669-.524-1.242 0-2.101.602-2.576 1.807l-1.248-.356c.713-1.696 2.031-2.544 3.954-2.544 1.08 0 1.952.288 2.616.864.664.576.996 1.268.996 2.079 0 .627-.2 1.174-.599 1.641-.399.468-.913.761-1.539.879.702.103 1.304.398 1.809.884.505.486.759 1.116.759 1.889 0 .924-.375 1.701-1.126 2.33-.751.63-1.779.944-3.086.944-1.037 0-1.925-.246-2.663-.737-.737-.492-1.245-1.145-1.525-1.96l1.288-.43c.39 1.334 1.348 2.001 2.876 2.001.993 0 1.707-.211 2.141-.637.435-.424.654-.931.654-1.521 0-.638-.262-1.155-.783-1.55s-1.25-.592-2.19-.592h-1.264z"/><path d="M-117.021 9.984c-1.274 0-2.292-.552-3.054-1.658-.762-1.104-1.142-2.476-1.142-4.114 0-1.61.362-2.969 1.085-4.077.724-1.107 1.747-1.662 3.07-1.662 1.383 0 2.43.579 3.146 1.735.715 1.157 1.074 2.512 1.074 4.069 0 1.524-.367 2.856-1.101 3.996-.734 1.141-1.76 1.711-3.078 1.711zm.009-1.094c.934 0 1.625-.422 2.073-1.268.449-.845.673-1.907.673-3.188 0-1.399-.229-2.562-.689-3.491-.458-.929-1.167-1.394-2.122-1.394-.923 0-1.612.424-2.063 1.272-.451.848-.675 1.963-.675 3.345 0 1.437.237 2.583.713 3.439.475.857 1.172 1.285 2.09 1.285z"/><path d="M-108.814 5.032v.67c-.303.04-.564.059-.786.059-1.065 0-1.598-.552-1.598-1.655v-3.286h-.975v-.664h.975l.039-1.372.795-.075v1.447h1.234v.664h-1.234v3.428c0 .562.295.843.884.843.196 0 .418-.02.666-.059z"/><path d="M-103.558 5.61h-.856v-3.311c0-.389-.024-.68-.073-.875-.048-.195-.166-.363-.35-.505-.184-.142-.396-.213-.636-.213-.44 0-.807.178-1.104.535-.295.356-.444.834-.444 1.431v2.938h-.856v-7.372h.856v2.922c.389-.77.947-1.155 1.67-1.155.322 0 .61.062.864.189.253.126.445.292.581.497.135.205.227.408.275.607.049.2.073.534.073 1.002v3.31z"/><rect x="-94.946" y="3.473" width="41.935" height="1.383"/><rect x="-253.011" y="3.473" width="41.935" height="1.383"/></g><g fill="#3A3A3A"><path d="M17.153 2.533l-.049.297-.1.28c-.517-.385-1.171-.577-1.963-.577-.771 0-2.25.379-4.438 1.138-2.277.792-3.608 1.43-3.993 1.914-.154.198-.473.726-.957 1.584-.253.451-.457.781-.61.99.264.066.462.099.594.099.319 0 .795-.069 1.427-.207.633-.137 1.108-.206 1.428-.206.517 0 .842.011.974.033.385.066.671.215.857.446l-2.987.644c-.989.22-1.963.534-2.92.94-.507.22-.925.742-1.254 1.567-.144.396-.424 1.095-.842 2.096-.308.693-.748 1.039-1.32 1.039v-.28c0-.418.297-1.171.892-2.261.308-.561.863-1.562 1.666-3.003.604-1.1.907-1.809.907-2.128 0-.154-.061-.297-.181-.429-.342-.363-.517-.566-.528-.611l.033-.264.362-.38c1.078-.164 2.355-.544 3.828-1.137l3.762-1.518c1.255-.506 2.597-.759 4.026-.759.759-.001 1.221.231 1.386.693z"/><path d="M17.467 10.552l-2.591-.842c-.638 0-1.199.435-1.683 1.304-.176.297-.471.998-.883 2.104s-1.075 1.658-1.988 1.658c.055-.451.341-1.072.858-1.864.561-.858.896-1.49 1.006-1.897.088-.341.148-.902.182-1.683.011-.332.088-.672.232-1.024.197-.495.423-.753.676-.775l.313.016.165 1.122c.077.286.336.429.776.429h.561l.231-.017c1.265-.022 1.98.468 2.145 1.469z"/><path d="M27.796 11.245c0 1.034-.748 1.843-2.244 2.425-1.133.44-2.326.66-3.58.66-2.63 0-3.944-.649-3.944-1.947 0-.924.858-1.821 2.574-2.69 1.529-.77 2.816-1.155 3.861-1.155.924 0 1.688.214 2.293.644.693.484 1.04 1.172 1.04 2.063zm-.907-.099c0-.539-.275-.946-.825-1.221-.44-.22-.957-.33-1.551-.33-.99 0-2.02.275-3.086.825-1.122.561-1.925 1.249-2.409 2.062.748.759 1.645 1.139 2.689 1.139 1.001 0 2.029-.182 3.086-.544 1.396-.485 2.096-1.128 2.096-1.931z"/><path d="M41.457 9.182c0 .561-.203 1.155-.61 1.782l-.94 1.452c-.506.814-.759 1.336-.759 1.567 0 .077.027.264.082.561l.033.347c0 .242-.154.423-.462.544-.473-.121-.709-.506-.709-1.155 0-.561.214-1.193.644-1.897.935-1.529 1.402-2.508 1.402-2.937-.672.198-1.552.638-2.641 1.32-.527.341-1.319.847-2.376 1.518-1.243.77-2.023 1.155-2.343 1.155l-.247-.049c.021-.242.495-.809 1.419-1.7.406-.396.61-.814.61-1.254 0-.165-.033-.335-.1-.511l-.23-.495c-.683.341-1.469.94-2.359 1.798l-2.146 2.079c-.704.682-1.275 1.023-1.716 1.023v-.297c0-.297.566-1.078 1.699-2.343.627-.693 1.001-1.166 1.122-1.419.265-.528.556-.809.875-.841.22-.022.869-.281 1.947-.775.483-.22.824-.33 1.022-.33.462 0 .809.407 1.04 1.221.043.154.12.49.23 1.007.439-.253 1.237-.699 2.393-1.337 1.089-.594 1.914-.891 2.475-.891.431-.001.645.285.645.857z"/><path d="M57.71 12.911c0 1.133-.621 2.013-1.864 2.64-.979.495-2.106.742-3.383.742-1.903 0-2.854-.748-2.854-2.244 0-.517.138-1.062.413-1.634.253-.539.577-1.001.973-1.386.605-.594 1.105-1.117 1.502-1.568l1.732-2.392c.209-.209.429-.314.66-.314.418 0 .627.22.627.66 0 .374-.407.985-1.221 1.832-.43.44-1.194 1.243-2.294 2.409-.825.891-1.237 1.623-1.237 2.194 0 .451.159.853.479 1.205.318.352.704.528 1.155.528.308 0 .538-.088.692-.264.055-1.089.353-1.975.892-2.657.604-.77 1.436-1.155 2.491-1.155.825.002 1.237.469 1.237 1.404zm-.94.182c0-.341-.209-.512-.627-.512-.396 0-.845.239-1.345.718-.501.479-.751.91-.751 1.295 0 .319.204.479.61.479.43 0 .889-.223 1.378-.668s.735-.884.735-1.312z"/><path d="M72.478 4.414c0 .275-.094.583-.28.924-.078.142-.414.61-1.008 1.402.274.187.556.369.842.544.308.253.445.539.412.858l-.017.182-.759-.231c-.319-.099-.566-.149-.742-.149-.605 0-1.478.635-2.615 1.906-1.139 1.271-1.708 2.219-1.708 2.847 0 .539.483.93 1.452 1.171.615.154 1.309.231 2.079.231.297 0 .599-.022.907-.066-.011.055.038.154.148.297-.693.264-1.381.396-2.062.396-2.475 0-3.713-.605-3.713-1.815 0-.715.622-1.766 1.865-3.151l1.419-1.584-.578-.033c-.242-.011-.566.055-.974.198-.803.286-1.275.429-1.419.429-.187 0-.36-.058-.52-.173-.157-.116-.237-.262-.237-.438 0-.429.489-.644 1.469-.644l.429.017.429.016c.836 0 1.526-.143 2.071-.429.544-.286 1.025-.781 1.443-1.485.144-.242.479-.924 1.007-2.046.143 0 .289.099.438.297.147.198.222.375.222.529z"/><path d="M82.756 11.245c0 1.034-.748 1.843-2.244 2.425-1.133.44-2.326.66-3.58.66-2.63 0-3.944-.649-3.944-1.947 0-.924.858-1.821 2.574-2.69 1.529-.77 2.816-1.155 3.861-1.155.924 0 1.688.214 2.293.644.693.484 1.04 1.172 1.04 2.063zm-.907-.099c0-.539-.275-.946-.825-1.221-.44-.22-.957-.33-1.551-.33-.99 0-2.02.275-3.086.825-1.122.561-1.925 1.249-2.409 2.062.748.759 1.645 1.139 2.689 1.139 1.001 0 2.029-.182 3.086-.544 1.396-.485 2.096-1.128 2.096-1.931z"/><path d="M98.662 9.908c-.11.209-.721.721-1.831 1.534-.451.33-.677.583-.677.759 0 .077.143.561.429 1.452.154.473.231.841.231 1.105 0 1.177-.979 1.765-2.938 1.765-.561 0-1.1-.11-1.616-.33-.672-.286-1.007-.682-1.007-1.188 0-.528.577-1.281 1.732-2.26.242-.198.682-.566 1.32-1.105-.374-.209-1.034-.6-1.98-1.171-.891-.561-1.336-1.117-1.336-1.667 0-.759.462-1.32 1.386-1.683.671-.264 1.436-.396 2.293-.396h.479c1.837 0 2.756.457 2.756 1.37 0 .374-.324.561-.974.561h-.445c-.066-.792-.683-1.188-1.848-1.188-.474 0-.985.104-1.535.313-.704.264-1.056.6-1.056 1.006 0 .088.335.369 1.007.841 1.386.968 2.194 1.452 2.425 1.452.275 0 .798-.195 1.567-.586.771-.388 1.31-.584 1.618-.584zm-2.821 4.67c0-.22-.066-.473-.198-.759-.021-.055-.259-.456-.709-1.204-.528.253-1.034.577-1.519.973-.648.518-.974.984-.974 1.403 0 .506.413.759 1.238.759 1.441-.001 2.162-.392 2.162-1.172z"/><path d="M115.97 11.245c0 1.034-.748 1.843-2.244 2.425-1.133.44-2.326.66-3.58.66-2.63 0-3.944-.649-3.944-1.947 0-.924.858-1.821 2.574-2.69 1.529-.77 2.816-1.155 3.861-1.155.924 0 1.688.214 2.293.644.693.484 1.04 1.172 1.04 2.063zm-.908-.099c0-.539-.275-.946-.825-1.221-.44-.22-.957-.33-1.551-.33-.99 0-2.02.275-3.086.825-1.122.561-1.925 1.249-2.409 2.062.748.759 1.645 1.139 2.689 1.139 1.001 0 2.029-.182 3.086-.544 1.397-.485 2.096-1.128 2.096-1.931z"/><path d="M123.181 10.552l-2.591-.842c-.638 0-1.199.435-1.683 1.304-.176.297-.471.998-.883 2.104s-1.075 1.658-1.988 1.658c.055-.451.341-1.072.858-1.864.561-.858.896-1.49 1.006-1.897.088-.341.148-.902.182-1.683.011-.33.088-.671.231-1.023.197-.495.423-.753.676-.775l.313.016.165 1.122c.077.286.336.429.776.429h.561l.231-.017c1.266-.023 1.981.467 2.146 1.468z"/><path d="M141.644 7.681c0 .396-.275.924-.825 1.584-.309.363-.853 1.023-1.634 1.98-.583.726-.874 1.392-.874 1.997 0 .319.203.473.61.462l.247-.017h.165c.165 0 .341.028.528.083l.23.264-.809.214c-.329.077-.6.116-.808.116-.451 0-.771-.11-.957-.33-.154-.198-.231-.528-.231-.99v-.379l.017-.379c-.759.484-1.293.814-1.601.99-1.386.759-2.58 1.139-3.58 1.139-1.111 0-1.667-.27-1.667-.809 0-.396.506-1.215 1.519-2.458.692-.847 1.374-1.611 2.046-2.293.88-.891 1.446-1.336 1.699-1.336.209 0 .313.11.313.33 0 .286-.401.891-1.204 1.815-.353.385-.881.974-1.584 1.766-.716.825-1.178 1.479-1.387 1.963l.165.165.33.017.33.016c.341 0 .704-.077 1.089-.231l1.04-.445c1.165-.473 2.057-.957 2.673-1.452.318-.253.753-.759 1.304-1.518.241-.341.682-.951 1.319-1.832.44-.594.775-.891 1.007-.891.132 0 .274.055.429.165l.101.294z"/><path d="M150.339 10.354c0 .385-.182.94-.544 1.667-.363.726-.699 1.232-1.007 1.518l.033.264.115.248c-.088.33-.308.495-.66.495-.187 0-.354-.055-.503-.165s-.223-.253-.223-.429c0-.319.28-.863.842-1.634.561-.77.841-1.303.841-1.6 0-.561-.286-.842-.857-.842-.76 0-1.496.352-2.211 1.056-.363.385-1.029 1.067-1.997 2.046-.77.781-1.513 1.232-2.228 1.353v-.148l-.148-.165c0-.583.539-1.518 1.617-2.805.616-.737 1.012-1.271 1.188-1.601.1-.286.209-.572.33-.858.1-.22.195-.374.289-.462.094-.088.245-.132.454-.132.308 0 .462.16.462.479 0 .22-.027.396-.083.528-.011.044-.132.341-.362.891.945-.506 1.484-.787 1.616-.842.748-.363 1.298-.544 1.65-.544.418 0 .753.173 1.007.52.253.345.379.733.379 1.162z"/><path d="M157.847 4.414c0 .275-.094.583-.28.924-.077.143-.413.611-1.007 1.403.274.187.556.369.842.544.308.253.445.539.412.858l-.017.182-.759-.231c-.319-.099-.566-.149-.742-.149-.605 0-1.478.635-2.615 1.906-1.139 1.271-1.708 2.219-1.708 2.847 0 .539.483.93 1.452 1.171.615.154 1.309.231 2.079.231.297 0 .599-.022.907-.066-.011.055.038.154.148.297-.693.264-1.381.396-2.062.396-2.475 0-3.713-.605-3.713-1.815 0-.715.622-1.766 1.865-3.151l1.419-1.584-.578-.033c-.242-.011-.566.055-.974.198-.803.286-1.275.429-1.419.429-.187 0-.36-.058-.52-.173-.159-.115-.239-.261-.239-.437 0-.429.489-.644 1.469-.644l.429.017.429.016c.836 0 1.526-.143 2.071-.429.544-.286 1.025-.781 1.443-1.485.144-.242.479-.924 1.007-2.046.143 0 .289.099.438.297.148.196.223.373.223.527z"/><path d="M160.766 9.578c0 .176-.308 1.051-.924 2.624l-.347.875c-.132.297-.303.484-.511.561-.122.044-.369.066-.743.066l-.041-.33-.041-.33c0-.242.093-.511.28-.809.253-.407.396-.654.429-.742.088-.275.259-.759.512-1.452.187-.484.484-.891.891-1.221.33.329.495.582.495.758zm1.551-4.537c0 .396-.265.594-.793.594-.483 0-.726-.198-.726-.594 0-.198.063-.473.189-.825.127-.352.195-.616.207-.792.109.066.318.38.627.941l.297.297c.133.12.199.247.199.379z"/><path d="M169 3.671c0 .066-.369.776-1.105 2.129l-2.146 3.943c-.891 1.65-1.38 2.607-1.469 2.871l-.329 1.056c-.188.44-.43.66-.727.66-.165 0-.352-.039-.561-.116l-.182-.297c.121-.572.533-1.436 1.237-2.59l2.096-3.449c.813-1.331 1.347-2.447 1.601-3.349.044-.187.137-.517.28-.99.132-.33.347-.578.644-.743.165.022.316.129.454.322s.207.377.207.553z"/><path d="M182.496 4.414c0 .275-.094.583-.28.924-.077.143-.413.611-1.007 1.403.274.187.556.369.842.544.308.253.445.539.412.858l-.017.182-.759-.231c-.319-.099-.566-.149-.742-.149-.605 0-1.478.635-2.615 1.906-1.139 1.271-1.708 2.219-1.708 2.847 0 .539.483.93 1.452 1.171.615.154 1.309.231 2.079.231.297 0 .599-.022.907-.066-.011.055.038.154.148.297-.693.264-1.381.396-2.062.396-2.475 0-3.713-.605-3.713-1.815 0-.715.622-1.766 1.865-3.151l1.419-1.584-.578-.033c-.242-.011-.566.055-.974.198-.803.286-1.275.429-1.419.429-.187 0-.36-.058-.52-.173-.159-.115-.239-.261-.239-.437 0-.429.489-.644 1.469-.644l.429.017.429.016c.836 0 1.526-.143 2.071-.429.544-.286 1.025-.781 1.443-1.485.144-.242.479-.924 1.007-2.046.143 0 .289.099.438.297.149.196.223.373.223.527z"/><path d="M193.139 9.231c0 .506-.328 1.386-.982 2.64s-.981 2.074-.981 2.458c0 .319.088.627.264.924-.396.209-.704.313-.924.313-.407 0-.61-.209-.61-.627 0-.44.321-1.317.965-2.632.644-1.314.966-2.225.966-2.73l-.033-.313-.033-.313c-1.617.187-3.179.803-4.686 1.848-1.562 1.089-2.646 2.359-3.251 3.811-.242-.088-.604-.181-1.089-.28.055-.242.435-.831 1.139-1.766.253-.319.951-1.237 2.096-2.755.836-1.111 1.363-1.854 1.584-2.228.065-.11.396-.875.99-2.293.429-1.012.824-1.683 1.188-2.013l.412.248c.144.088.215.209.215.363 0 .165-.93 2.118-2.788 5.857.924-.407 1.732-.753 2.425-1.04 1.32-.55 2.068-.825 2.244-.825.198 0 .347.05.445.148.295.298.444.7.444 1.205z"/><path d="M201.075 13.241c-.33.363-1.111.638-2.343.825-.869.132-1.755.198-2.656.198-1.859 0-2.789-.534-2.789-1.601 0-1.309.968-2.431 2.904-3.366.671-.33 1.369-.599 2.096-.808.703.165 1.171.286 1.402.363.495.165.742.578.742 1.237 0 .583-.374 1.045-1.122 1.386-.627.286-1.265.429-1.914.429-1.012 0-1.738-.154-2.178-.462-.55.264-.825.605-.825 1.023 0 .737.671 1.105 2.014 1.105.494 0 1.072-.033 1.732-.099 1.551-.153 2.53-.23 2.937-.23zm-1.699-3.168c-.33-.352-.731-.528-1.205-.528-.341 0-.648.072-.924.215-.011.011-.291.165-.841.462.329.528.78.792 1.353.792.649 0 1.188-.314 1.617-.941z"/><path d="M72.978 26.248c0 1.078-.688 2.035-2.062 2.871-.616.374-1.975.99-4.075 1.848-1.617.649-2.569 1.215-2.854 1.699-.363.902-.66 1.589-.892 2.062-.483.979-.979 1.469-1.484 1.469-.309 0-.463-.154-.463-.462 0-.242.303-.748.908-1.518.274-.33.674-.825 1.196-1.485.522-.66.844-1.171.965-1.534l1.699-2.079c.715-.979 1.073-1.766 1.073-2.359l-.347.206c-.144.083-.33.168-.562.256-.165-.143-.247-.347-.247-.611 0-.473.765-.935 2.293-1.386 1.298-.385 2.288-.578 2.971-.578 1.254 0 1.881.534 1.881 1.601zm-.974-.049c0-.462-.435-.693-1.304-.693-.539 0-1.066.165-1.584.495-.462.297-1.078 1.001-1.848 2.112-.792 1.155-1.188 1.969-1.188 2.442.319-.11.892-.324 1.717-.644.857-.363 1.655-.869 2.392-1.518.275-.242.721-.682 1.337-1.32.319-.33.478-.621.478-.874z"/><path d="M75.881 26.578c0 .176-.308 1.051-.924 2.624l-.347.875c-.132.297-.303.484-.511.561-.122.044-.369.066-.743.066l-.041-.33-.041-.33c0-.242.093-.511.28-.809.253-.407.396-.654.429-.742.088-.275.259-.759.512-1.452.187-.484.484-.891.891-1.221.33.329.495.582.495.758zm1.552-4.537c0 .396-.265.594-.793.594-.483 0-.726-.198-.726-.594 0-.198.063-.473.189-.825.127-.352.195-.616.207-.792.109.066.318.38.627.941l.297.297c.132.12.199.247.199.379z"/><path d="M87.695 30.258c-.682.528-1.694.924-3.036 1.188-1.066.22-2.172.33-3.316.33-2.53 0-3.795-.775-3.795-2.326 0-1.661 1.567-3.168 4.702-4.521 1.067-.462 2.09-.803 3.069-1.023.407.242.61.517.61.825 0 .396-.138.897-.412 1.501-.319.704-.649 1.056-.99 1.056-.165 0-.327-.052-.486-.157-.16-.104-.239-.233-.239-.388 0-.143.297-.61.891-1.402l-.544-.083c-.979 0-2.129.412-3.449 1.237-1.463.913-2.194 1.837-2.194 2.772 0 .693.347 1.205 1.04 1.535.527.253 1.177.379 1.946.379 1.793 0 3.316-.154 4.57-.462l.512-.215c.198-.088.363-.132.495-.132l.115.017.165-.148.313-.017.033.034z"/><path d="M95.467 21.414c0 .275-.094.583-.28.924-.077.143-.413.611-1.007 1.403.274.187.556.369.842.544.308.253.445.539.412.858l-.017.182-.759-.231c-.319-.099-.566-.149-.742-.149-.605 0-1.478.635-2.615 1.906-1.139 1.271-1.708 2.219-1.708 2.847 0 .539.483.93 1.452 1.171.615.154 1.309.231 2.079.231.297 0 .599-.022.907-.066-.011.055.038.154.148.297-.693.264-1.381.396-2.062.396-2.475 0-3.713-.605-3.713-1.815 0-.715.622-1.766 1.865-3.151l1.419-1.584-.578-.033c-.242-.011-.566.055-.974.198-.803.286-1.275.429-1.419.429-.187 0-.36-.058-.52-.173-.159-.115-.239-.261-.239-.437 0-.429.489-.644 1.469-.644l.429.017.429.016c.836 0 1.526-.143 2.071-.429.544-.286 1.025-.781 1.443-1.485.144-.242.479-.924 1.007-2.046.143 0 .289.099.438.297.149.196.223.373.223.527z"/><path d="M106.901 24.681c0 .396-.275.924-.825 1.584-.309.363-.853 1.023-1.634 1.98-.583.726-.874 1.392-.874 1.997 0 .319.203.473.61.462l.247-.017h.165c.165 0 .341.028.528.083l.23.264-.809.214c-.329.077-.6.116-.808.116-.451 0-.771-.11-.957-.33-.154-.198-.231-.528-.231-.99v-.379l.017-.379c-.759.484-1.293.814-1.601.99-1.386.759-2.58 1.139-3.58 1.139-1.111 0-1.667-.27-1.667-.809 0-.396.506-1.215 1.519-2.458.692-.847 1.374-1.611 2.046-2.293.88-.891 1.446-1.336 1.699-1.336.209 0 .313.11.313.33 0 .286-.401.891-1.204 1.815-.353.385-.881.974-1.584 1.766-.716.825-1.178 1.479-1.387 1.963l.165.165.33.017.33.016c.341 0 .704-.077 1.089-.231l1.04-.445c1.165-.473 2.057-.957 2.673-1.452.318-.253.753-.759 1.304-1.518.241-.341.682-.951 1.319-1.832.44-.594.775-.891 1.007-.891.132 0 .274.055.429.165l.101.294z"/><path d="M114.045 27.552l-2.591-.842c-.638 0-1.199.435-1.683 1.304-.176.297-.471.998-.883 2.104s-1.075 1.658-1.988 1.658c.055-.451.341-1.072.858-1.864.561-.858.896-1.49 1.006-1.897.088-.341.148-.902.182-1.683.011-.33.088-.671.231-1.023.197-.495.423-.753.676-.775l.313.016.165 1.122c.077.286.336.429.776.429h.561l.231-.017c1.266-.023 1.981.467 2.146 1.468z"/><path d="M122.113 30.241c-.33.363-1.111.638-2.343.825-.869.132-1.755.198-2.656.198-1.859 0-2.789-.534-2.789-1.601 0-1.309.968-2.431 2.904-3.366.671-.33 1.369-.599 2.096-.808.703.165 1.171.286 1.402.363.495.165.742.578.742 1.237 0 .583-.374 1.045-1.122 1.386-.627.286-1.265.429-1.914.429-1.012 0-1.738-.154-2.178-.462-.55.264-.825.605-.825 1.023 0 .737.671 1.105 2.014 1.105.494 0 1.072-.033 1.732-.099 1.552-.153 2.53-.23 2.937-.23zm-1.699-3.168c-.33-.352-.731-.528-1.205-.528-.341 0-.648.072-.924.215-.011.011-.291.165-.841.462.329.528.78.792 1.353.792.649 0 1.188-.314 1.617-.941z"/><path d="M132.359 23.427c-.099.517-.511.88-1.237 1.089-.429.11-1.193.303-2.293.578-.946.242-1.634.583-2.062 1.023 1.386.341 2.249.577 2.59.709 1.21.451 1.815.974 1.815 1.567 0 .858-.721 1.661-2.161 2.409-1.276.649-2.388.973-3.333.973-.781 0-1.496-.302-2.146-.907-.704-.66-1.028-1.364-.974-2.112l.017-.247c.308.11.753.572 1.337 1.386.55.759 1.033 1.139 1.452 1.139.715 0 1.639-.242 2.771-.726 1.309-.561 1.964-1.144 1.964-1.749 0-.429-.386-.759-1.155-.99-.033 0-.853-.208-2.459-.627-.891-.231-1.474-.5-1.749-.808.33-.363.984-.748 1.964-1.155.627-.264 1.562-.583 2.805-.957 1.343-.407 2.135-.654 2.376-.742.143.075.303.125.478.147z"/><path d="M146.682 26.71c0 .242-.115.66-.347 1.254-.11.287-.165.512-.165.677 0 1.672-.104 3.063-.313 4.174-.66 3.564-2.432 5.346-5.313 5.346-.517 0-1.188-.16-2.013-.479-.99-.374-1.484-.775-1.484-1.205 0-.099.049-.297.148-.594h.165c.286.319.77.638 1.451.957.683.319 1.227.478 1.634.478 1.331 0 2.442-.638 3.333-1.914.792-1.145 1.188-2.42 1.188-3.828 0-.341-.066-.627-.198-.858-.221-.088-.391-.132-.512-.132-.066 0-.182.022-.347.066s-.291.066-.379.066c-1.067 0-1.849-.061-2.344-.182-.989-.242-1.484-.737-1.484-1.485 0-1.056.604-1.997 1.814-2.822 1.111-.759 2.211-1.138 3.301-1.138 1.243.002 1.865.541 1.865 1.619zm-1.057-.198c0-.363-.335-.544-1.006-.544-.704 0-1.491.297-2.359.891-.957.649-1.436 1.31-1.436 1.98 0 .737.72 1.105 2.161 1.105.374 0 .742-.055 1.105-.165.517-.154.775-.374.775-.66 0-.077-.024-.187-.074-.33-.049-.143-.074-.248-.074-.313 0-.132.203-.533.61-1.205.199-.319.298-.572.298-.759z"/><path d="M154.717 30.241c-.33.363-1.111.638-2.343.825-.869.132-1.755.198-2.656.198-1.859 0-2.789-.534-2.789-1.601 0-1.309.968-2.431 2.904-3.366.671-.33 1.369-.599 2.096-.808.703.165 1.171.286 1.402.363.495.165.742.578.742 1.237 0 .583-.374 1.045-1.122 1.386-.627.286-1.265.429-1.914.429-1.012 0-1.738-.154-2.178-.462-.55.264-.825.605-.825 1.023 0 .737.671 1.105 2.014 1.105.494 0 1.072-.033 1.732-.099 1.551-.153 2.53-.23 2.937-.23zm-1.699-3.168c-.33-.352-.731-.528-1.205-.528-.341 0-.648.072-.924.215-.011.011-.291.165-.841.462.329.528.78.792 1.353.792.649 0 1.188-.314 1.617-.941z"/><path d="M162.521 21.414c0 .275-.094.583-.28.924-.077.143-.413.611-1.007 1.403.274.187.556.369.842.544.308.253.445.539.412.858l-.017.182-.759-.231c-.319-.099-.566-.149-.742-.149-.605 0-1.478.635-2.615 1.906-1.139 1.271-1.708 2.219-1.708 2.847 0 .539.483.93 1.452 1.171.615.154 1.309.231 2.079.231.297 0 .599-.022.907-.066-.011.055.038.154.148.297-.693.264-1.381.396-2.062.396-2.475 0-3.713-.605-3.713-1.815 0-.715.622-1.766 1.865-3.151l1.419-1.584-.578-.033c-.242-.011-.566.055-.974.198-.803.286-1.275.429-1.419.429-.187 0-.36-.058-.52-.173-.159-.115-.239-.261-.239-.437 0-.429.489-.644 1.469-.644l.429.017.429.016c.836 0 1.526-.143 2.071-.429.544-.286 1.025-.781 1.443-1.485.144-.242.479-.924 1.007-2.046.143 0 .289.099.438.297.149.196.223.373.223.527z"/><path d="M179.549 18.691c-.154.682-.571 1.452-1.254 2.31-.352.429-.979 1.199-1.881 2.31-.693.847-1.1 1.573-1.221 2.178l2.178.429c.968.319 1.452.82 1.452 1.501 0 .968-.848 1.964-2.541 2.987-1.551.924-2.838 1.386-3.861 1.386-.407 0-1.298-.253-2.673-.759v-.313c0-.165.104-.374.313-.627.396-.484.93-1.117 1.601-1.897l1.634-1.898c.703-.813 1.188-1.386 1.452-1.716.538-.66.962-1.271 1.271-1.832l1.601-2.854c.461-.803 1.105-1.205 1.929-1.205zm-1.633 8.778c0-.385-.242-.666-.727-.842-.352-.132-.759-.198-1.221-.198-1.045 0-2.013.396-2.904 1.188-.891.792-1.336 1.705-1.336 2.739 0 .473.247.709.742.709.836 0 1.919-.39 3.25-1.171 1.464-.857 2.196-1.666 2.196-2.425z"/><path d="M185.638 20.671c0 .066-.369.776-1.105 2.129l-2.146 3.943c-.891 1.65-1.38 2.607-1.469 2.871l-.329 1.056c-.188.44-.43.66-.727.66-.165 0-.352-.039-.561-.116l-.182-.297c.121-.572.533-1.436 1.237-2.59l2.096-3.449c.813-1.331 1.347-2.447 1.601-3.349.044-.187.137-.517.28-.99.132-.33.347-.578.644-.743.165.022.316.129.454.322.137.193.207.377.207.553z"/><path d="M195.835 24.681c0 .396-.275.924-.825 1.584-.309.363-.853 1.023-1.634 1.98-.583.726-.874 1.392-.874 1.997 0 .319.203.473.61.462l.247-.017h.165c.165 0 .341.028.528.083l.23.264-.809.214c-.329.077-.6.116-.808.116-.451 0-.771-.11-.957-.33-.154-.198-.231-.528-.231-.99v-.379l.017-.379c-.759.484-1.293.814-1.601.99-1.386.759-2.58 1.139-3.58 1.139-1.111 0-1.667-.27-1.667-.809 0-.396.506-1.215 1.519-2.458.692-.847 1.374-1.611 2.046-2.293.88-.891 1.446-1.336 1.699-1.336.209 0 .313.11.313.33 0 .286-.401.891-1.204 1.815-.353.385-.881.974-1.584 1.766-.716.825-1.178 1.479-1.387 1.963l.165.165.33.017.33.016c.341 0 .704-.077 1.089-.231l1.04-.445c1.165-.473 2.057-.957 2.673-1.452.318-.253.753-.759 1.304-1.518.241-.341.682-.951 1.319-1.832.44-.594.775-.891 1.007-.891.132 0 .274.055.429.165l.101.294z"/><path d="M202.979 27.552l-2.591-.842c-.638 0-1.199.435-1.683 1.304-.176.297-.471.998-.883 2.104s-1.075 1.658-1.988 1.658c.055-.451.341-1.072.858-1.864.561-.858.896-1.49 1.006-1.897.088-.341.148-.902.182-1.683.011-.33.088-.671.231-1.023.197-.495.423-.753.676-.775l.313.016.165 1.122c.077.286.336.429.776.429h.561l.231-.017c1.266-.023 1.98.467 2.146 1.468z"/><path d="M210.271 27.552l-2.591-.842c-.638 0-1.199.435-1.683 1.304-.176.297-.471.998-.883 2.104s-1.075 1.658-1.988 1.658c.055-.451.341-1.072.858-1.864.561-.858.896-1.49 1.006-1.897.088-.341.148-.902.182-1.683.011-.33.088-.671.231-1.023.197-.495.423-.753.676-.775l.313.016.165 1.122c.077.286.336.429.776.429h.561l.231-.017c1.267-.023 1.981.467 2.146 1.468z"/><path d="M219 24.796c0 .418-.33 1.023-.99 1.815-.352.407-.968 1.145-1.848 2.211-.66.814-.99 1.485-.99 2.013 0 .143.022.264.066.363-.836.231-1.623.902-2.359 2.013l-2.476 3.762c-.153-.033-.445-.187-.874-.462.176-.363.571-.935 1.188-1.716.319-.374.786-.94 1.402-1.699.518-.649.775-1.078.775-1.287 0-.319-.253-.479-.759-.479h-.33c-.506-.055-.874-.484-1.105-1.287-.154-.539-.23-1.155-.23-1.848 0-.77.082-1.672.247-2.706.671 0 1.007.539 1.007 1.617 0 .198-.02.49-.058.875-.039.385-.058.677-.058.875 0 1.342.582 2.013 1.749 2.013.362 0 .891-.495 1.584-1.485.197-.286.824-1.282 1.881-2.987.748-1.21 1.309-1.985 1.683-2.326.077.055.179.17.306.346.126.176.189.302.189.379z"/></g><text transform="translate(13 133.546)" fill="#3A3A3A" font-family="'Handwriting-Dakota'" font-size="16.5">From 6 to 8 or until the</text><text transform="translate(104 153.546)" fill="#3A3A3A" font-family="'Handwriting-Dakota'" font-size="16.5">pictures get blurry</text></svg>