<svg baseProfile="tiny" xmlns="http://www.w3.org/2000/svg" width="350" height="175"><g fill="#fff"><path d="M24.295 48.787c3.225 0 5.938.543 8.138 1.627 2.199 1.087 3.972 2.508 5.322 4.268 1.349 1.759 2.316 3.769 2.903 6.025.585 2.259.88 4.561.88 6.906 0 3.226-.484 6.041-1.452 8.445-.968 2.405-2.317 4.37-4.047 5.894-1.73 1.526-3.827 2.67-6.29 3.432s-5.19 1.143-8.181 1.143h-6.774v25.072h-12.668v-62.812h22.169zm-3.871 28.415c2.521 0 4.559-.762 6.114-2.287 1.553-1.524 2.331-3.9 2.331-7.126 0-3.167-.675-5.571-2.024-7.214-1.349-1.641-3.606-2.463-6.773-2.463h-5.278v19.09h5.63z"/><path d="M47.123 67.041c.44-4.017 1.408-7.462 2.903-10.337 1.496-2.872 3.651-5.115 6.466-6.729 2.815-1.612 6.598-2.419 11.349-2.419s8.533.807 11.348 2.419c2.815 1.614 4.971 3.857 6.466 6.729 1.496 2.875 2.463 6.32 2.903 10.337.44 4.019.66 8.401.66 13.152 0 4.81-.22 9.208-.66 13.195-.439 3.989-1.407 7.421-2.903 10.294s-3.651 5.072-6.466 6.597c-2.815 1.524-6.598 2.287-11.348 2.287s-8.533-.763-11.349-2.287c-2.815-1.524-4.97-3.724-6.466-6.597s-2.463-6.305-2.903-10.294c-.439-3.987-.66-8.386-.66-13.195 0-4.751.221-9.133.66-13.152zm12.316 23.929c.205 2.962.616 5.366 1.231 7.213.616 1.848 1.496 3.198 2.639 4.047 1.144.852 2.653 1.276 4.531 1.276 1.876 0 3.387-.425 4.531-1.276 1.144-.849 2.023-2.199 2.639-4.047.616-1.847 1.025-4.251 1.231-7.213.205-2.961.308-6.554.308-10.776s-.103-7.8-.308-10.733c-.206-2.932-.616-5.335-1.231-7.213-.616-1.876-1.496-3.24-2.639-4.091-1.144-.85-2.654-1.275-4.531-1.275-1.877 0-3.387.426-4.531 1.275-1.144.851-2.023 2.215-2.639 4.091-.616 1.878-1.026 4.281-1.231 7.213-.206 2.934-.308 6.511-.308 10.733s.102 7.815.308 10.776z"/><path d="M94.937 48.787h12.668v52.431h22.433v10.381h-35.101v-62.812z"/><path d="M165.314 48.787l16.627 62.812h-13.196l-2.903-13.283h-16.715l-2.903 13.283h-13.196l16.627-62.812h15.659zm-1.671 39.148l-6.07-28.239h-.176l-6.07 28.239h12.316z"/><path d="M211.5 48.787c5.277 0 9.383 1.335 12.315 4.003 2.932 2.669 4.399 6.729 4.399 12.184 0 4.223-.852 7.669-2.552 10.337-1.702 2.67-4.341 4.385-7.917 5.146v.176c3.166.471 5.482 1.496 6.949 3.079 1.465 1.584 2.375 4.135 2.728 7.653.116 1.175.204 2.45.264 3.827.058 1.379.116 2.918.176 4.619.116 3.342.292 5.894.528 7.652.352 1.76 1.113 2.963 2.287 3.607v.527h-13.725c-.646-.879-1.055-1.892-1.23-3.035-.176-1.143-.295-2.33-.353-3.562l-.352-12.053c-.118-2.463-.734-4.397-1.848-5.806-1.114-1.407-2.991-2.11-5.63-2.11h-6.773v26.566h-12.669v-62.81h23.403zm-5.455 27.447c3.049 0 5.396-.718 7.039-2.155 1.641-1.437 2.463-3.855 2.463-7.258 0-5.807-2.934-8.709-8.799-8.709h-5.98v18.122h5.277z"/><path d="M234.592 67.041c.439-4.017 1.408-7.462 2.904-10.337 1.494-2.872 3.65-5.115 6.465-6.729 2.815-1.612 6.598-2.419 11.349-2.419s8.533.807 11.349 2.419c2.814 1.614 4.971 3.857 6.466 6.729 1.496 2.875 2.464 6.32 2.903 10.337.439 4.019.66 8.401.66 13.152 0 4.81-.221 9.208-.66 13.195-.439 3.989-1.407 7.421-2.903 10.294-1.495 2.873-3.651 5.072-6.466 6.597-2.815 1.524-6.598 2.287-11.349 2.287s-8.533-.763-11.349-2.287c-2.814-1.524-4.971-3.724-6.465-6.597-1.496-2.873-2.465-6.305-2.904-10.294-.439-3.987-.659-8.386-.659-13.195 0-4.751.219-9.133.659-13.152zm12.316 23.929c.205 2.962.616 5.366 1.232 7.213.615 1.848 1.495 3.198 2.639 4.047 1.144.852 2.652 1.276 4.53 1.276 1.876 0 3.388-.425 4.53-1.276 1.145-.849 2.023-2.199 2.64-4.047.616-1.847 1.025-4.251 1.231-7.213.205-2.961.308-6.554.308-10.776s-.103-7.8-.308-10.733c-.206-2.932-.615-5.335-1.231-7.213-.616-1.876-1.495-3.24-2.64-4.091-1.143-.85-2.654-1.275-4.53-1.275-1.878 0-3.387.426-4.53 1.275-1.144.851-2.023 2.215-2.639 4.091-.616 1.878-1.027 4.281-1.232 7.213-.207 2.934-.308 6.511-.308 10.733s.101 7.815.308 10.776z"/><path d="M284.781 48.787h12.668v62.812h-12.668v-62.812z"/><path d="M328.238 48.787c4.398 0 7.946.719 10.645 2.155 2.697 1.438 4.795 3.49 6.291 6.158 1.495 2.669 2.506 5.88 3.034 9.633.528 3.754.792 7.947.792 12.58 0 5.514-.338 10.309-1.012 14.383-.675 4.077-1.834 7.434-3.475 10.073-1.643 2.64-3.842 4.604-6.598 5.894-2.758 1.291-6.246 1.936-10.469 1.936h-19.971v-62.812h20.763zm-2.463 53.487c2.229 0 4.017-.381 5.366-1.145 1.349-.761 2.419-2.023 3.21-3.783.793-1.759 1.32-4.074 1.584-6.949.265-2.873.396-6.45.396-10.732 0-3.576-.118-6.715-.352-9.413-.235-2.696-.72-4.94-1.452-6.729-.733-1.788-1.817-3.137-3.255-4.047-1.438-.908-3.357-1.363-5.762-1.363h-5.367v44.162h5.632z"/><path d="M33.254 154.731v1.062c0 9.124-3.678 18.037-15.561 18.037-12.732 0-16.693-8.206-16.693-26.242 0-18.037 3.961-26.243 16.764-26.243 14.359 0 15.208 10.61 15.208 15.846v.92h-8.064v-.85c0-4.668-1.414-10.045-7.214-9.832-5.942 0-8.63 3.679-8.63 19.947s2.688 20.371 8.63 20.371c6.72 0 7.498-7.498 7.498-12.166v-.85h8.062z"/><path d="M37.5 122.335h27.303v6.791h-19.24v14.006h18.107v6.79h-18.107v16.128h19.806v6.79h-27.869v-50.505z"/><path d="M67.774 122.335h8.064v43.715h19.522v6.79h-27.586v-50.505z"/><path d="M98.686 122.335h27.303v6.791h-19.24v14.006h18.108v6.79h-18.108v16.128h19.806v6.79h-27.869v-50.505z"/><path d="M131.294 122.335h16.339c7.498 0 13.581 3.326 13.581 12.237 0 6.154-2.405 9.903-7.427 11.46v.141c5.517.99 9.054 4.314 9.054 12.874 0 8.417-6.083 13.793-15.561 13.793h-15.986v-50.505zm14.43 21.292c4.88 0 7.427-3.254 7.427-7.993 0-6.013-3.607-7.215-8.134-7.215h-5.66v15.208h6.367zm1.627 23.13c4.81 0 7.427-3.112 7.427-8.912 0-5.447-3.253-8.56-7.922-8.56h-7.499v17.472h7.994z"/><path d="M166.449 122.335h17.825c7.073 0 12.803 3.537 12.803 13.016 0 6.508-2.899 11.529-8.417 12.379v.142c5.022.495 7.639 3.254 7.922 10.327.071 3.254.142 7.215.283 10.256.142 2.476 1.344 3.678 2.405 4.386h-9.125c-.777-.92-1.132-2.476-1.344-4.456-.283-3.041-.213-5.871-.354-9.549-.142-5.518-1.84-7.922-7.355-7.922h-6.579v21.927h-8.064v-50.506zm14.5 22.494c5.163 0 8.063-3.112 8.063-8.205 0-5.376-2.334-8.205-7.639-8.205h-6.861v16.41h6.437z"/><path d="M215.397 122.335h10.327l13.297 50.505h-8.416l-3.113-12.378h-14.782l-3.254 12.378h-8.418l14.359-50.505zm10.751 31.689l-5.799-24.898h-.143l-6.013 24.898h11.955z"/><path d="M244.115 129.126h-12.024v-6.791h31.901v6.791h-11.812v43.714h-8.064v-43.714z"/><path d="M266.822 122.335h8.064v50.505h-8.064v-50.505z"/><path d="M278.848 147.588c0-18.037 5.092-26.243 16.692-26.243s16.693 8.206 16.693 26.243c0 18.036-5.093 26.242-16.693 26.242s-16.692-8.206-16.692-26.242zm25.322-.212c0-16.977-3.819-19.947-8.63-19.947-4.81 0-8.63 2.971-8.63 19.947 0 17.4 3.82 20.371 8.63 20.371 4.811 0 8.63-2.971 8.63-20.371z"/><path d="M316.549 122.335h9.833l14.642 37.631h.141v-37.631h7.64v50.505h-9.831l-14.643-38.62h-.141v38.62h-7.641v-50.505z"/><path d="M165.601 11.423c-.101-1.314-.521-5.708-2.222-8.218-1.702-2.51-3.028-1.991-3.028-1.991s-.796-.064-1.958.88c-1.161.943-3.569 4.647-3.569 4.647l-2.815 4.17-6.767-7.379s-1.872-2.294-3.493-2.294c-1.62 0-2.47 1.465-3.164 2.468-.45.65-1.189 2.761-1.656 5.504l-.057.226c-.293 1.204-.376 3.12-.371 4.684v.027c.003.852.032 1.598.067 2.061.101 1.312.456 5.641 2.157 8.151 1.701 2.508 2.964 2.02 2.964 2.02s.858.034 2.021-.909c.241-.195.532-.516.841-.896.191-.224.34-.424.443-.569.706-.942 1.427-2.05 1.839-2.699l1.587-2.324 1.523-2.174.175-.226 6.741 7.448s1.872 2.297 3.493 2.297c1.62 0 2.471-1.466 3.165-2.471.5-.72 1.354-3.237 1.798-6.426.323-1.952.375-4.849.286-6.007zm-19.43 7.509s-1.82 2.491-3.908 2.626-4.075-1.858-4.377-5.861c-.305-4 .201-7.14.201-7.14s.404-2.627 1.347-2.56c.943.067 3.55 2.872 3.55 2.872l5.908 6.602-2.721 3.461zm3.306-1.502l.145-.213.206-.264-.351.477zm2.556-6.492l-.023-.024.837-1.141-.814 1.165zm11.953 8.173s-.405 2.628-1.348 2.559c-.943-.066-3.55-2.873-3.55-2.873l-5.908-6.601 2.723-3.459s1.818-2.493 3.907-2.628c2.089-.134 4.074 1.858 4.378 5.861.304 4.003-.202 7.141-.202 7.141z"/><polygon points="78.516,16.038 70.955,3.282 66.669,3.282 66.669,25.062 70.675,25.062 70.592,11.054 77.89,23.74 79.115,23.74 86.205,11.124 86.152,25.062 90.158,25.062 90.158,3.282 85.931,3.282"/><path d="M102.436 3.282h-9.068v21.78h9.068c6.033 0 9.636-4.071 9.636-10.891-.001-6.817-3.603-10.889-9.636-10.889m-4.882 3.5h3.448c6.066 0 6.882 3.735 6.882 7.39s-.816 7.392-6.882 7.392h-3.448v-14.782z"/><path d="M129.054 16.47l-.019.196c-.242 2.505-1.686 5.181-5.016 5.181-4.445 0-6.021-4.097-6.021-7.604 0-3.506 1.576-7.602 6.021-7.602 2.589 0 4.24 1.319 4.906 3.92l.042.162h4.002l-.023-.238c-.423-4.349-3.93-7.18-8.927-7.211-5.918 0-10.051 4.511-10.051 10.969 0 6.461 4.133 10.973 10.051 10.973 5.059 0 8.659-3.423 8.956-8.515l.015-.23h-3.936z"/><path d="M169.406 3.586h9.248c5.988 0 7.136 3.875 7.136 6.489 0 2.583-1.147 6.46-7.136 6.431h-5.578v8.047h-3.67v-20.967zm3.67 9.924h5.372c1.644 0 3.671-.822 3.671-3.464 0-2.761-1.672-3.464-3.611-3.464h-5.432v6.928z"/><path d="M173.297 24.774h-4.114v-21.412h9.471c6.641 0 7.357 4.694 7.357 6.713 0 1.999-.709 6.653-7.29 6.653h-5.424v8.046zm-3.672-.444h3.228v-8.048l5.869.002c5.956-.002 6.845-3.89 6.845-6.209 0-2.34-.896-6.267-6.912-6.267h-9.029v20.522zm8.824-10.597h-5.596v-7.374h5.655c2.544 0 3.834 1.24 3.834 3.687 0 2.723-2.097 3.687-3.893 3.687m-5.152-.445h5.152c1.666 0 3.447-.852 3.447-3.242 0-2.211-1.076-3.242-3.389-3.242h-5.21v6.484z"/><path d="M173.297 24.774h-4.114v-21.412h9.471c6.641 0 7.357 4.694 7.357 6.713 0 1.999-.709 6.653-7.29 6.653h-5.424v8.046zm-3.672-.444h3.228v-8.048h5.869c5.956 0 6.845-3.888 6.845-6.207 0-2.34-.896-6.267-6.912-6.267h-9.029v20.522zm8.824-10.597h-5.596v-7.374h5.655c2.544 0 3.834 1.24 3.834 3.687 0 2.723-2.097 3.687-3.893 3.687m-5.152-.445h5.152c1.666 0 3.447-.852 3.447-3.242 0-2.211-1.076-3.242-3.389-3.242h-5.21v6.484z"/><path d="M173.519 24.996h-4.56v-21.855h9.695c6.842 0 7.58 4.85 7.58 6.935 0 2.066-.732 6.875-7.513 6.875h-5.203v8.045zm-4.113-.443v0zm.444-.445h2.781v-8.048h6.091c5.763 0 6.624-3.751 6.624-5.985 0-2.258-.869-6.045-6.691-6.045h-8.805v20.078zm8.599-10.153h-5.818v-7.818h5.877c2.654 0 4.057 1.352 4.057 3.909-.001 2.885-2.218 3.909-4.116 3.909m-5.373-.445v-6.928h5.432c2.429 0 3.611 1.133 3.611 3.464 0-2.331-1.183-3.464-3.611-3.464h-5.432v6.928zm.443-.445h4.93c1.559 0 3.226-.794 3.226-3.02 0-2.089-.977-3.02-3.167-3.02h-4.989v6.04z"/><path d="M200.363 21.175c0 .821.176 1.146.794 1.146.204 0 .47 0 .821-.059v2.319c-.5.177-1.557.382-2.115.382-1.349 0-2.32-.47-2.582-1.85-1.321 1.292-3.466 1.85-5.258 1.85-2.729 0-5.195-1.468-5.195-4.434 0-3.789 3.023-4.406 5.844-4.729 2.407-.439 4.551-.177 4.551-2.144 0-1.733-1.791-2.055-3.143-2.055-1.88 0-3.201.764-3.348 2.407h-3.348c.235-3.905 3.554-5.051 6.9-5.051 2.967 0 6.078 1.205 6.078 4.405v7.813zm-3.346-4.229c-1.028.675-2.644.646-4.112.909-1.437.236-2.729.766-2.729 2.527 0 1.496 1.908 1.938 3.082 1.938 1.467 0 3.759-.764 3.759-2.878v-2.496z"/><path d="M199.863 25.186c-1.469 0-2.357-.544-2.708-1.658-1.448 1.216-3.565 1.658-5.132 1.658-2.696 0-5.418-1.441-5.418-4.656 0-3.928 3.117-4.613 6.041-4.949.501-.093.996-.153 1.476-.213 1.891-.233 2.877-.417 2.877-1.71 0-1.514-1.587-1.833-2.919-1.833-1.093 0-2.955.286-3.125 2.205l-.02.203h-3.786l.015-.235c.203-3.393 2.732-5.26 7.121-5.26 2.908 0 6.301 1.211 6.301 4.627v7.811c0 .832.184.922.571.922.2 0 .451 0 .786-.055l.258-.043v2.738l-.148.053c-.505.179-1.593.395-2.19.395m-2.441-2.522l.076.408c.219 1.138.971 1.668 2.365 1.668.487 0 1.38-.166 1.894-.32v-1.904c-.247.026-.444.026-.6.026-.937 0-1.016-.707-1.016-1.367v-7.811c0-3.084-3.026-4.183-5.856-4.183-2.856 0-6.297.807-6.659 4.606h2.91c.233-1.533 1.513-2.408 3.544-2.408 2.168 0 3.364.81 3.364 2.277 0 1.747-1.516 1.936-3.269 2.151-.473.058-.961.119-1.465.211-2.871.33-5.661.948-5.661 4.51 0 2.909 2.499 4.211 4.974 4.211 1.583 0 3.755-.47 5.104-1.785l.295-.29zm-4.164-.122c-1.227 0-3.306-.454-3.306-2.159 0-2.013 1.56-2.523 2.918-2.744.423-.078.864-.13 1.292-.182 1.051-.125 2.042-.243 2.732-.696l.344-.228v2.909c0 2.275-2.381 3.1-3.98 3.1m3.536-5.217c-.728.353-1.63.461-2.579.574-.422.049-.855.101-1.27.176-1.787.292-2.549.981-2.549 2.308 0 1.356 1.873 1.714 2.861 1.714 1.422 0 3.536-.706 3.536-2.654v-2.118z"/><path d="M199.863 25.186c-1.469 0-2.357-.544-2.708-1.658-1.448 1.216-3.565 1.658-5.132 1.658-2.696 0-5.418-1.441-5.418-4.656 0-3.928 3.117-4.613 6.041-4.949.501-.093.996-.153 1.476-.213 1.891-.233 2.877-.417 2.877-1.71 0-1.516-1.587-1.833-2.919-1.833-1.093 0-2.955.286-3.125 2.205l-.02.203h-3.786l.015-.235c.203-3.393 2.732-5.26 7.121-5.26 2.908 0 6.301 1.211 6.301 4.627v7.811c0 .832.184.922.571.922.2 0 .451 0 .786-.055l.258-.043v2.738l-.148.053c-.505.179-1.593.395-2.19.395m-2.441-2.522l.076.408c.219 1.138.971 1.668 2.365 1.668.487 0 1.38-.166 1.894-.32v-1.904c-.247.026-.444.026-.6.026-.937 0-1.016-.707-1.016-1.367v-7.811c0-3.084-3.026-4.183-5.856-4.183-2.856 0-6.297.807-6.659 4.606h2.91c.233-1.533 1.513-2.408 3.544-2.408 2.168 0 3.364.81 3.364 2.277 0 1.747-1.516 1.936-3.269 2.151-.473.058-.961.119-1.465.211-2.871.33-5.661.948-5.661 4.51 0 2.909 2.499 4.211 4.974 4.211 1.583 0 3.755-.47 5.104-1.785l.295-.29zm-4.164-.122c-1.227 0-3.306-.454-3.306-2.159 0-2.013 1.56-2.524 2.918-2.744.423-.078.864-.13 1.292-.182 1.051-.125 2.042-.243 2.732-.696l.344-.228v2.909c0 2.275-2.381 3.1-3.98 3.1m3.536-5.217c-.728.353-1.63.461-2.579.573-.422.05-.855.102-1.27.177-1.787.292-2.549.981-2.549 2.308 0 1.356 1.873 1.714 2.861 1.714 1.422 0 3.536-.706 3.536-2.654v-2.118z"/><path d="M199.863 25.408c-1.424 0-2.369-.51-2.809-1.518-1.488 1.114-3.547 1.518-5.031 1.518-2.807 0-5.641-1.51-5.641-4.879 0-4.455 4.057-4.921 6.236-5.169.49-.092.984-.152 1.461-.213 2-.246 2.697-.429 2.697-1.49 0-1.069-.908-1.61-2.697-1.61-1.243 0-2.757.348-2.903 2.004l-.038.403h-4.227l.029-.473c.213-3.524 2.82-5.467 7.344-5.467 3.01 0 6.522 1.271 6.522 4.85v7.811c0 .701.103.701.35.701.192 0 .432 0 .748-.053l.518-.085v3.157l-.297.105c-.529.188-1.635.408-2.262.408m-2.594-2.266l.1.318c.321 1.024 1.114 1.503 2.495 1.503-1.499 0-2.344-.605-2.582-1.85l-.25.226.237-.197zm.293-.926l.155.815c.196 1.028.858 1.487 2.146 1.487.422 0 1.169-.134 1.67-.267v-1.495l-.376.008c-1.238 0-1.238-1.113-1.238-1.59v-7.811c0-2.92-2.909-3.96-5.634-3.96-2.684 0-5.939.729-6.409 4.161h2.474c.326-1.534 1.672-2.407 3.73-2.407 2.312 0 3.588.887 3.588 2.499 0 1.943-1.684 2.152-3.465 2.371-.469.059-.951.117-1.451.209-2.896.333-5.48.909-5.48 4.292 0 2.755 2.388 3.989 4.752 3.989 1.539 0 3.646-.453 4.947-1.723l.591-.578zm4.417.046l-.317.04.073-.008.244-.032zm-1.616-1.087c0 .598.076.967.438 1.095-.319-.117-.438-.441-.438-1.095m-7.4-5.423l-.277.048c-2.971.34-5.857.984-5.857 4.729 0-3.745 3.023-4.404 5.857-4.729l.277-.048m1.398-.19l-.213.025-.295.036.295-.036.213-.025m2.862-1.902c0 .673-.258 1.085-.689 1.354.445-.273.689-.684.689-1.354m-3.14-2.057c2.022 0 3.136.729 3.14 2.051-.004-1.696-1.709-2.051-3.14-2.051m-.007 0c-.73 0-1.355.114-1.858.334.624-.269 1.327-.334 1.858-.334m-.818 11.162c-1.311 0-3.527-.503-3.527-2.382 0-2.204 1.771-2.748 3.104-2.966.427-.075.869-.129 1.301-.182 1.023-.12 1.992-.237 2.639-.662l.688-.452v3.321c-.001 2.437-2.517 3.323-4.205 3.323m-3.082-2.382c0 1.529 1.937 1.938 3.082 1.938-1.068-.001-3.082-.407-3.082-1.938m6.396-2.721c-.695.262-1.493.358-2.332.457-.416.05-.848.102-1.255.176-1.681.274-2.366.877-2.366 2.088 0 1.181 1.727 1.493 2.639 1.493 1.332 0 3.314-.648 3.314-2.434v-1.78zm-3.739.207c-1.245.211-2.489.653-2.644 2.188.123-1.214.954-1.897 2.644-2.188m.864-.131l-.68.099.68-.099m3.32-.792c-.533.349-1.214.509-1.96.621.605-.091 1.165-.212 1.642-.442l.318-.152v-.027z"/><path d="M204.746 9.37h3.143v2.936h.059c.381-1.614 2.379-3.347 4.434-3.347.766 0 .971.06 1.262.089v3.229c-.469-.06-.969-.146-1.438-.146-2.291 0-4.109 1.85-4.109 5.197v7.225h-3.35v-15.183z"/><path d="M208.316 24.774h-3.792v-15.626h3.586v2.18c.783-1.356 2.489-2.591 4.271-2.591.598 0 .871.035 1.09.065l.195.024.199.021v3.682l-.578-.076c-.361-.05-.734-.102-1.082-.102-2.363 0-3.889 1.953-3.889 4.976v7.447zm-3.347-.444h2.903v-7.002c0-3.241 1.741-5.419 4.333-5.419.378 0 .768.054 1.145.104l.071.01v-2.778l-.009-.001c-.217-.03-.463-.062-1.031-.062-1.984 0-3.863 1.677-4.218 3.177l-.041.171h-.456v-2.937h-2.697v14.737z"/><path d="M208.316 24.774h-3.792v-15.626h3.586v2.18c.783-1.356 2.489-2.591 4.271-2.591.598 0 .871.035 1.09.065l.195.024.199.021v3.681l-.578-.075c-.361-.05-.734-.102-1.082-.102-2.363 0-3.889 1.953-3.889 4.976v7.447zm-3.347-.444h2.903v-7.002c0-3.241 1.741-5.419 4.333-5.419.378 0 .768.054 1.145.104l.071.01v-2.778l-.009-.001c-.217-.03-.463-.062-1.031-.062-1.984 0-3.863 1.677-4.218 3.177l-.041.171h-.456v-2.937h-2.697v14.737z"/><path d="M208.538 24.996h-4.235v-16.07h4.029v1.687c.874-1.096 2.361-2.098 4.049-2.098.615 0 .895.039 1.121.067l.188.024.398.041v4.136l-.829-.108c-.363-.05-.726-.1-1.055-.1-2.229 0-3.667 1.866-3.667 4.753v7.668zm-3.792-.443v0zm.444-.445h2.459v-6.78c0-3.374 1.832-5.641 4.556-5.641.331 0 .677.04.994.081v-2.327c-.183-.021-.418-.037-.818-.037-1.884 0-3.666 1.587-4.001 3.004l-.081.343h-.854v-2.936h-2.255v14.293zm2.699-11.802h.059c.06-.248.158-.505.293-.757l-.352.609v.148zm4.318-.175c.305.001.627.039.941.08-.314-.041-.632-.079-.941-.08m1.244-3.106l.184.024.008.195v-.195l-.192-.024"/><path d="M215.916 9.37h2.523v-4.551h3.348v4.551h3.025v2.496h-3.025v8.104c0 1.381.119 2.085 1.614 2.085.472 0 .941 0 1.411-.116v2.582c-.733.061-1.438.178-2.174.178-3.494 0-4.139-1.351-4.199-3.877v-8.956h-2.523v-2.496z"/><path d="M222.639 24.921c-3.635 0-4.358-1.438-4.423-4.094v-8.739h-2.524v-2.94h2.524v-4.552h3.795v4.553h3.024v2.939h-3.024v7.883c0 1.381.113 1.862 1.391 1.862.471 0 .913 0 1.356-.11l.277-.068v3.073l-.205.016-.73.072c-.473.052-.962.105-1.461.105m-6.501-13.278h2.525v9.18c.058 2.474.667 3.654 3.976 3.654.475 0 .932-.049 1.414-.102l.536-.057v-2.107c-.401.067-.798.067-1.188.067-1.707 0-1.836-.913-1.836-2.308v-8.328h3.023v-2.05h-3.023v-4.551h-2.902v4.552h-2.525v2.05z"/><path d="M222.639 24.921c-3.635 0-4.358-1.438-4.423-4.094v-8.739h-2.524v-2.94h2.524v-4.552h3.795v4.553h3.024v2.939h-3.024v7.883c0 1.381.113 1.862 1.391 1.862.471 0 .913 0 1.356-.11l.277-.068v3.073l-.205.016-.73.072c-.473.052-.962.105-1.461.105m-6.501-13.278h2.525v9.18c.058 2.474.667 3.654 3.976 3.654.475 0 .932-.049 1.414-.102l.536-.057v-2.107c-.401.067-.798.067-1.188.067-1.707 0-1.836-.913-1.836-2.308v-8.328h3.023v-2.05h-3.023v-4.551h-2.902v4.552h-2.525v2.05z"/><path d="M222.639 25.144c-3.799 0-4.578-1.582-4.643-4.312v-8.522h-2.524v-3.384h2.524v-4.552h4.235v4.552h3.024v3.384h-3.024v7.661c0 1.371.095 1.641 1.17 1.641.456 0 .888 0 1.302-.104l.553-.138v3.563l-.408.033-.723.071c-.494.053-.983.107-1.486.107m2.173-.623l-.201.02-.119.013.32-.033zm-8.452-13.1h2.524v9.401c.057 2.371.611 3.433 3.754 3.433.468 0 .916-.049 1.39-.102l.339-.036v-1.652c-.328.036-.65.036-.966.036-1.907 0-2.058-1.097-2.058-2.53v-8.55h3.023v-1.606h-3.023v-4.552h-2.459v4.553h-2.524v1.605zm5.728 10.195c.229.299.627.439 1.313.439-.691.001-1.087-.152-1.313-.439m2.724.322l-.273.056.014-.003.259-.053zm-6.373-10.072v8.961l.031.626-.031-.626v-8.961zm-2.523 0v-2.496h2.523v0h-2.523v2.496zm5.871-2.496z"/><path d="M227.75 9.37h3.173v2.232l.058.06c1-1.675 2.73-2.703 4.727-2.703 3.29 0 5.375 1.761 5.375 5.169v10.425h-3.349v-9.545c-.06-2.378-.999-3.405-2.964-3.405-2.231 0-3.672 1.762-3.672 3.993v8.957h-3.348v-15.183z"/><path d="M241.305 24.774h-3.793v-9.767c-.055-2.229-.875-3.184-2.742-3.184-2.03 0-3.449 1.55-3.449 3.771v9.179h-3.793v-15.625h3.618v1.872c1.081-1.441 2.745-2.283 4.562-2.283 3.557 0 5.598 1.964 5.598 5.391v10.646zm-3.348-.444h2.902v-10.202c0-3.144-1.877-4.946-5.152-4.946-1.871 0-3.566.97-4.535 2.595l-.146.245-.325-.327v-2.102h-2.729v14.737h2.903v-8.734c0-2.443 1.638-4.216 3.895-4.216 2.113 0 3.126 1.152 3.188 3.622v9.328z"/><path d="M241.305 24.774h-3.793v-9.767c-.055-2.229-.875-3.184-2.742-3.184-2.03 0-3.449 1.55-3.449 3.771v9.179h-3.793v-15.625h3.618v1.87c1.081-1.439 2.745-2.281 4.562-2.281 3.557 0 5.598 1.964 5.598 5.391v10.646zm-3.348-.444h2.902v-10.202c0-3.144-1.877-4.946-5.152-4.946-1.871 0-3.566.97-4.535 2.594l-.146.246-.325-.327v-2.102h-2.729v14.737h2.903v-8.734c0-2.443 1.638-4.216 3.895-4.216 2.113 0 3.126 1.152 3.188 3.622v9.328z"/><path d="M241.525 24.996h-4.234v-9.988c-.053-2.102-.785-2.961-2.521-2.961-1.9 0-3.227 1.459-3.227 3.549v9.4h-4.236v-16.07h4.061v1.481c1.118-1.21 2.669-1.893 4.34-1.893 3.699 0 5.818 2.045 5.818 5.613v10.869zm-3.792-.443v-9.551c-.017-.684-.105-1.257-.272-1.727.167.47.256 1.043.272 1.727v9.551zm-9.983 0v0zm10.43-.445h2.457v-9.98c0-3.002-1.797-4.724-4.93-4.724-1.793 0-3.416.928-4.344 2.484l-.295.492-.59-.596v-1.97h-2.283v14.293h2.459v-8.513c0-2.571 1.73-4.438 4.115-4.438 2.229 0 3.346 1.255 3.41 3.84v9.112zm-2.473-15.149c3.416 0 5.375 1.885 5.375 5.169 0-3.284-1.959-5.169-5.375-5.169zm-4.75 2.68l.023.023c1.007-1.688 2.768-2.698 4.713-2.703-1.732.004-3.326.804-4.372 2.194l-.364.486z"/><path d="M247.289 17.827c0 2.378 1.294 4.493 4.083 4.493 1.937 0 3.111-.852 3.698-2.525h3.17c-.733 3.318-3.551 5.168-6.868 5.168-4.758 0-7.431-3.318-7.431-7.986 0-4.318 2.82-8.018 7.344-8.018 4.785 0 7.72 4.316 7.162 8.868h-11.158zm7.811-2.203c-.117-2.114-1.555-4.021-3.814-4.021-2.322 0-3.907 1.762-3.996 4.021h7.81z"/><path d="M251.372 25.186c-4.647 0-7.651-3.224-7.651-8.209 0-4.774 3.182-8.239 7.564-8.239 2.125 0 4.051.854 5.422 2.404 1.555 1.756 2.269 4.203 1.961 6.713l-.023.194h-11.129c.074 1.917 1.113 4.048 3.856 4.048 1.812 0 2.92-.755 3.489-2.375l.052-.148h3.606l-.061.27c-.716 3.244-3.498 5.342-7.086 5.342m-.087-16.004c-4.676 0-7.12 3.922-7.12 7.795 0 4.788 2.761 7.764 7.207 7.764 3.27 0 5.823-1.844 6.587-4.723h-2.733c-.649 1.697-1.911 2.524-3.854 2.524-3.177 0-4.305-2.539-4.305-4.715v-.222h11.183c.232-2.316-.445-4.554-1.874-6.169-1.286-1.453-3.097-2.254-5.091-2.254m4.051 6.666h-8.277l.009-.231c.097-2.454 1.868-4.236 4.218-4.236 2.496 0 3.92 2.13 4.035 4.231l.015.236zm-7.81-.447h7.332c-.192-1.813-1.446-3.577-3.573-3.577-2.06 0-3.578 1.46-3.759 3.577"/><path d="M251.372 25.186c-4.647 0-7.651-3.224-7.651-8.209 0-4.774 3.182-8.239 7.564-8.239 2.125 0 4.051.854 5.422 2.404 1.555 1.756 2.269 4.203 1.961 6.713l-.023.194h-11.129c.074 1.917 1.113 4.048 3.856 4.048 1.812 0 2.92-.755 3.489-2.375l.052-.148h3.606l-.061.27c-.716 3.244-3.498 5.342-7.086 5.342m-.087-16.004c-4.676 0-7.12 3.922-7.12 7.795 0 4.788 2.761 7.764 7.207 7.764 3.27 0 5.823-1.844 6.587-4.723h-2.733c-.649 1.697-1.911 2.524-3.854 2.524-3.177 0-4.305-2.539-4.305-4.715v-.222h11.183c.232-2.316-.445-4.554-1.874-6.169-1.286-1.453-3.097-2.254-5.091-2.254m4.051 6.666h-8.277l.009-.231c.097-2.454 1.868-4.236 4.218-4.236 2.496 0 3.92 2.13 4.035 4.231l.015.236zm-7.81-.447h7.332c-.192-1.813-1.446-3.577-3.573-3.577-2.06 0-3.578 1.46-3.759 3.577"/><path d="M251.372 25.408c-4.784 0-7.874-3.312-7.874-8.432 0-4.903 3.274-8.462 7.787-8.462 2.188 0 4.174.881 5.59 2.479 1.596 1.804 2.33 4.313 2.014 6.888l-.049.39h-11.088c.144 1.784 1.155 3.604 3.62 3.604 1.728 0 2.739-.688 3.278-2.228l.105-.298h4.041l-.121.541c-.739 3.352-3.609 5.518-7.303 5.518m6.759-5.181c-.837 2.881-3.471 4.733-6.753 4.736 3.311-.003 5.916-1.846 6.753-4.736m-6.846-10.823c-4.529 0-6.898 3.809-6.898 7.572 0 4.651 2.676 7.542 6.985 7.542 3.03 0 5.468-1.671 6.291-4.279h-2.286c-.701 1.699-2.014 2.525-4.005 2.525-3.342 0-4.528-2.659-4.528-4.938v-.445h11.202c.169-2.179-.495-4.281-1.837-5.798-1.244-1.405-2.992-2.179-4.924-2.179m-3.992 8.624c.067 2.023 1.162 4.289 4.074 4.292-2.885-.003-3.999-2.297-4.074-4.263v-.029zm7.777 1.767c-.595 1.693-1.799 2.52-3.68 2.525 1.831-.006 3.018-.785 3.628-2.382l.056-.144h-.004zm-.956-10.266c.921.396 1.745.988 2.427 1.761 1.363 1.538 2.066 3.645 1.965 5.841.102-2.198-.597-4.297-1.963-5.841-.684-.772-1.508-1.365-2.429-1.761m-8.076 1.675c-1.316 1.424-2.094 3.435-2.097 5.769.003-2.113.711-4.238 2.097-5.769m9.531 4.864h-8.741l.016-.46c.102-2.579 1.969-4.45 4.441-4.45 2.633 0 4.137 2.233 4.259 4.442l.025.468zm-2.125-3.762c.938.71 1.481 1.856 1.622 2.966-.146-1.152-.701-2.272-1.622-2.966m-5.669 2.874h6.83c-.256-1.553-1.367-3.133-3.32-3.133-1.865 0-3.249 1.249-3.51 3.133"/><path d="M261.639 9.37h3.141v2.936h.059c.383-1.614 2.379-3.347 4.436-3.347.764 0 .968.06 1.262.089v3.229c-.471-.06-.969-.146-1.439-.146-2.29 0-4.111 1.85-4.111 5.197v7.225h-3.346v-15.183z"/><path d="M265.207 24.774h-3.792v-15.626h3.587v2.18c.782-1.356 2.489-2.591 4.271-2.591.597 0 .87.035 1.089.065l.194.024.201.021v3.682l-.578-.076c-.362-.05-.735-.102-1.084-.102-2.361 0-3.889 1.953-3.889 4.976v7.447zm-3.348-.444h2.904v-7.002c0-3.241 1.74-5.419 4.332-5.419.379 0 .768.054 1.145.104l.072.01v-2.778l-.01-.001c-.216-.03-.461-.062-1.029-.062-1.984 0-3.865 1.677-4.22 3.177l-.039.171h-.458v-2.937h-2.697v14.737z"/><path d="M265.207 24.774h-3.792v-15.626h3.587v2.18c.782-1.356 2.489-2.591 4.271-2.591.597 0 .87.035 1.089.065l.194.024.201.021v3.681l-.578-.075c-.362-.05-.735-.102-1.084-.102-2.361 0-3.889 1.953-3.889 4.976v7.447zm-3.348-.444h2.904v-7.002c0-3.241 1.74-5.419 4.332-5.419.379 0 .768.054 1.145.104l.072.01v-2.778l-.01-.001c-.216-.03-.461-.062-1.029-.062-1.984 0-3.865 1.677-4.22 3.177l-.039.171h-.458v-2.937h-2.697v14.737z"/><path d="M265.43 24.996h-4.236v-16.07h4.031v1.687c.873-1.096 2.361-2.098 4.049-2.098.614 0 .893.039 1.117.067l.189.024.398.041v4.136l-.826-.108c-.365-.05-.727-.1-1.057-.1-2.229 0-3.666 1.866-3.666 4.753v7.668zm-3.791-.443v0zm.443-.445h2.459v-6.78c0-3.374 1.829-5.641 4.555-5.641.333 0 .677.04.995.081v-2.327c-.181-.021-.417-.037-.817-.037-1.885 0-3.668 1.587-4.002 3.004l-.082.343h-.854v-2.936h-2.254v14.293zm2.697-11.802h.059c.061-.248.16-.505.294-.757l-.353.609v.148zm4.32-.175c.306.001.627.039.94.08-.313-.041-.632-.079-.94-.08m1.244-3.106l.183.024.01.195v-.195l-.193-.024"/><path d="M275.219 19.677c.177 1.94 1.646 2.644 3.436 2.644 1.264 0 3.465-.265 3.378-1.996-.089-1.764-2.525-1.969-4.963-2.527-2.466-.527-4.874-1.408-4.874-4.492 0-3.317 3.582-4.346 6.343-4.346 3.111 0 5.931 1.292 6.343 4.669h-3.496c-.293-1.585-1.613-2.025-3.081-2.025-.969 0-2.761.233-2.761 1.556 0 1.644 2.467 1.88 4.933 2.438 2.437.558 4.903 1.438 4.903 4.434 0 3.612-3.641 4.934-6.783 4.934-3.816 0-6.664-1.703-6.723-5.286h3.345z"/><path d="M278.596 25.186c-4.292 0-6.889-2.059-6.947-5.505l-.003-.227h3.778l.018.203c.184 2.017 1.85 2.439 3.213 2.439.773 0 2.167-.101 2.814-.782.25-.262.359-.582.342-.979-.068-1.331-1.759-1.684-3.717-2.09l-1.074-.229c-2.619-.562-5.045-1.522-5.045-4.711 0-3.371 3.536-4.567 6.563-4.567 3.793 0 6.185 1.771 6.562 4.863l.03.249h-3.929l-.034-.182c-.23-1.241-1.168-1.844-2.864-1.844-.596 0-2.538.097-2.538 1.334 0 1.228 1.715 1.583 3.699 1.994.348.071.703.146 1.059.227 2.638.604 5.078 1.585 5.078 4.65.001 3.807-3.775 5.157-7.005 5.157m-6.494-5.286c.164 3.035 2.571 4.84 6.494 4.84 3.025 0 6.562-1.232 6.562-4.711 0-2.892-2.442-3.691-4.731-4.218l-1.051-.225c-2.084-.431-4.055-.839-4.055-2.429 0-1.649 2.283-1.778 2.983-1.778 1.839 0 2.935.682 3.262 2.024h3.057c-.618-3.806-4.442-4.223-6.084-4.223-2.823 0-6.121 1.079-6.121 4.123 0 2.713 1.88 3.672 4.699 4.276.36.083.718.157 1.067.229 2.05.424 3.986.827 4.07 2.502.025.518-.129.958-.463 1.309-.761.801-2.293.921-3.137.921-2.109 0-3.391-.937-3.631-2.642h-2.921z"/><path d="M278.596 25.186c-4.292 0-6.889-2.059-6.947-5.505l-.003-.227h3.778l.018.203c.184 2.017 1.85 2.439 3.213 2.439.773 0 2.167-.101 2.814-.782.25-.262.359-.582.342-.979-.068-1.331-1.759-1.684-3.717-2.09l-1.074-.229c-2.619-.562-5.045-1.522-5.045-4.711 0-3.371 3.536-4.567 6.563-4.567 3.793 0 6.185 1.771 6.562 4.863l.03.249h-3.929l-.034-.182c-.23-1.241-1.168-1.844-2.864-1.844-.596 0-2.538.097-2.538 1.334 0 1.228 1.715 1.583 3.699 1.994.348.071.703.146 1.059.227 2.638.604 5.078 1.585 5.078 4.65.001 3.807-3.775 5.157-7.005 5.157m-6.494-5.286c.164 3.035 2.571 4.84 6.494 4.84 3.025 0 6.562-1.232 6.562-4.711 0-2.892-2.442-3.691-4.731-4.218l-1.051-.225c-2.084-.431-4.055-.839-4.055-2.429 0-1.649 2.283-1.778 2.983-1.778 1.839 0 2.935.682 3.262 2.024h3.057c-.618-3.806-4.442-4.223-6.084-4.223-2.823 0-6.121 1.079-6.121 4.123 0 2.713 1.88 3.672 4.699 4.276.36.083.718.157 1.067.229 2.051.424 3.986.827 4.07 2.502.025.518-.129.958-.463 1.309-.761.801-2.293.921-3.137.921-2.109 0-3.391-.937-3.631-2.642h-2.921z"/><path d="M278.596 25.408c-4.43 0-7.109-2.141-7.169-5.725l-.005-.45h4.204l.036.403c.136 1.484 1.142 2.239 2.992 2.239.595 0 2.043-.07 2.654-.715.207-.219.297-.478.279-.815-.057-1.159-1.672-1.495-3.539-1.883-.354-.073-.717-.149-1.078-.231-2.71-.58-5.221-1.58-5.221-4.927 0-3.536 3.657-4.79 6.788-4.79 3.919 0 6.39 1.844 6.782 5.06l.061.498h-4.365l-.066-.364c-.211-1.133-1.051-1.661-2.646-1.661-.389 0-2.317.054-2.317 1.111 0 1.046 1.635 1.385 3.524 1.776.349.072.707.146 1.063.227 2.727.625 5.25 1.648 5.25 4.868.001 3.97-3.893 5.379-7.227 5.379m-6.717-5.524c.154 3.182 2.646 5.075 6.705 5.079-4.029-.004-6.535-1.891-6.705-5.053v-.026zm.463.237c.267 2.758 2.584 4.397 6.254 4.397 2.924 0 6.338-1.176 6.338-4.489 0-2.728-2.252-3.472-4.557-4.001l-1.049-.224c-2.176-.45-4.229-.877-4.229-2.646 0-1.855 2.452-2 3.205-2 1.874 0 3.027.682 3.431 2.024h2.62c-.723-3.402-4.29-3.778-5.816-3.778-2.72 0-5.897 1.021-5.897 3.9 0 2.571 1.73 3.46 4.523 4.059.361.083.717.157 1.066.229 2.041.423 4.154.862 4.244 2.708.029.582-.146 1.077-.521 1.472-.82.864-2.418.992-3.299.992-2.146 0-3.496-.938-3.819-2.644h-2.494zm-.469-.444h3.342l.027.191c.287 2.024 2.01 2.451 3.41 2.452-2.059-.001-3.277-.939-3.434-2.644h-3.345zm9.842 1.694l-.085.097c-.688.725-2.102.847-2.921.853.819-.006 2.232-.128 2.921-.853l.085-.097m-3.816-3.392l.241.05.593.125-.593-.125-.241-.05m-5.704-4.674c0 3.03 2.341 3.95 4.87 4.492l.081.018-.081-.018c-2.527-.542-4.87-1.462-4.87-4.492m9.19.323h.008l-.042-.169c-.305-1.247-1.299-1.854-3.039-1.856 1.791.001 2.826.683 3.073 2.025m-2.847-4.669c-2.926 0-6.343 1.138-6.343 4.346 0-3.208 3.417-4.346 6.343-4.346 1.085 0 3.131.18 4.616 1.382-1.093-.9-2.662-1.382-4.616-1.382"/></g></svg>